<svg xmlns="http://www.w3.org/2000/svg" viewBox="0 0 500 500"><g id="freepik--Plants--inject-54"><g id="freepik--plants--inject-54"><path d="M43.31,377.84a60.72,60.72,0,0,1,2.35,9.38c1,6.1.31,27.34,0,33.49v0l1.05.35s0,0,0,0c1.13-6.23,1.28-28.32,0-34.5a65.79,65.79,0,0,0-2.47-9.05A33.46,33.46,0,0,0,40,368.42c-.14-.18-.33.22-.28.35C40.82,371.83,42.27,374.74,43.31,377.84Z" style="fill:#F83178"></path><path d="M42.27,374.44c-2.68-1.69-6.1-4.51-7.47-11.13s-3.22-12.39-2.65-13.82,6.93,4.9,10.09,11.39S44,371.06,42.27,374.44Z" style="fill:#F83178"></path><path d="M39.56,379.33c.56-1-1.35-4.21-6.17-7.1s-11.89-4.71-12.5-4.09,4.53,6.84,9.89,9.3S39,380.31,39.56,379.33Z" style="fill:#F83178"></path><path d="M60.12,357.75c-.74-.64-7.5,5.72-9.92,12.06-2.09,5.5-2.56,8.75-1.88,9.86l-.13.2a16,16,0,0,0-1.28,2.94c-.63,1.95-1.19,4.31-.55,6.32,0,.13.17,0,.19-.08.45-1.85.67-3.76,1.25-5.58a23.59,23.59,0,0,1,1.38-3.37c1.52-.08,4.57-2.57,7.2-7.69C59.33,366.67,60.87,358.4,60.12,357.75Z" style="fill:#F83178"></path><path d="M44.52,394.63c.66-1-.93-4.32-5.43-7.67s-11.38-5.85-12-5.3,3.83,7.25,8.92,10.23S43.91,395.55,44.52,394.63Z" style="fill:#F83178"></path><path d="M46.25,384.61a3.77,3.77,0,0,0-1.22-2,14.69,14.69,0,0,0-2.19-1.82A27.46,27.46,0,0,0,37.46,378c-.2-.08-.41.35-.25.46,1.58,1.14,3.26,2.11,4.87,3.19a15.58,15.58,0,0,1,2.12,1.67c.31.3.6.61.88.93s.52.73.9.78C46.15,385,46.25,384.73,46.25,384.61Z" style="fill:#F83178"></path><path d="M45.42,394.5a12.38,12.38,0,0,0-1.81-1.41,7.75,7.75,0,0,0-2.07-.94c-.17,0-.34.27-.19.38a39.8,39.8,0,0,1,3.36,2.71,13.16,13.16,0,0,1,1.42,1.47,3.08,3.08,0,0,1,.72,1.47c.09.45.56.53.68,0C47.9,396.78,46.34,395.38,45.42,394.5Z" style="fill:#F83178"></path><path d="M47,403l.67.83c1.76,0,6.67-2.86,9.82-7.22,3.69-5.11,4.76-10.42,4.45-11.18S54.75,388,50.7,394C48.32,397.56,47.05,401.44,47,403Z" style="fill:#F83178"></path><g style="opacity:0.65"><path d="M43.31,377.84a60.72,60.72,0,0,1,2.35,9.38c1,6.1.31,27.34,0,33.49v0l1.05.35s0,0,0,0c1.13-6.23,1.28-28.32,0-34.5a65.79,65.79,0,0,0-2.47-9.05A33.46,33.46,0,0,0,40,368.42c-.14-.18-.33.22-.28.35C40.82,371.83,42.27,374.74,43.31,377.84Z" style="fill:#fff"></path><path d="M42.27,374.44c-2.68-1.69-6.1-4.51-7.47-11.13s-3.22-12.39-2.65-13.82,6.93,4.9,10.09,11.39S44,371.06,42.27,374.44Z" style="fill:#fff"></path><path d="M39.56,379.33c.56-1-1.35-4.21-6.17-7.1s-11.89-4.71-12.5-4.09,4.53,6.84,9.89,9.3S39,380.31,39.56,379.33Z" style="fill:#fff"></path><path d="M60.12,357.75c-.74-.64-7.5,5.72-9.92,12.06-2.09,5.5-2.56,8.75-1.88,9.86l-.13.2a16,16,0,0,0-1.28,2.94c-.63,1.95-1.19,4.31-.55,6.32,0,.13.17,0,.19-.08.45-1.85.67-3.76,1.25-5.58a23.59,23.59,0,0,1,1.38-3.37c1.52-.08,4.57-2.57,7.2-7.69C59.33,366.67,60.87,358.4,60.12,357.75Z" style="fill:#fff"></path><path d="M44.52,394.63c.66-1-.93-4.32-5.43-7.67s-11.38-5.85-12-5.3,3.83,7.25,8.92,10.23S43.91,395.55,44.52,394.63Z" style="fill:#fff"></path><path d="M46.25,384.61a3.77,3.77,0,0,0-1.22-2,14.69,14.69,0,0,0-2.19-1.82A27.46,27.46,0,0,0,37.46,378c-.2-.08-.41.35-.25.46,1.58,1.14,3.26,2.11,4.87,3.19a15.58,15.58,0,0,1,2.12,1.67c.31.3.6.61.88.93s.52.73.9.78C46.15,385,46.25,384.73,46.25,384.61Z" style="fill:#fff"></path><path d="M45.42,394.5a12.38,12.38,0,0,0-1.81-1.41,7.75,7.75,0,0,0-2.07-.94c-.17,0-.34.27-.19.38a39.8,39.8,0,0,1,3.36,2.71,13.16,13.16,0,0,1,1.42,1.47,3.08,3.08,0,0,1,.72,1.47c.09.45.56.53.68,0C47.9,396.78,46.34,395.38,45.42,394.5Z" style="fill:#fff"></path><path d="M47,403l.67.83c1.76,0,6.67-2.86,9.82-7.22,3.69-5.11,4.76-10.42,4.45-11.18S54.75,388,50.7,394C48.32,397.56,47.05,401.44,47,403Z" style="fill:#fff"></path></g><path d="M28.51,399A12.27,12.27,0,0,1,20,393c-2.84-4.42-5.8-8.07-5.79-9.27s6.4,1.61,10.5,5.43S28.8,396.06,28.51,399Z" style="fill:#F83178"></path><path d="M33.75,401.82c1,.27,2.15-4.32,1.21-8.54s-3.18-7.19-3.71-7.37-1.62,6.5-.71,9.74S33.13,401.64,33.75,401.82Z" style="fill:#F83178"></path><path d="M39.31,410.28c1,.52,3.34-4.28,3.26-9.17s-1.9-8.7-2.44-9-3.25,6.82-3,10.62S38.66,409.94,39.31,410.28Z" style="fill:#F83178"></path><path d="M34.12,409c.71-.88-3.53-4.12-8.35-5s-8.9.14-9.33.61,4.27,4.18,9.82,5C30,410.22,33.66,409.6,34.12,409Z" style="fill:#F83178"></path><path d="M25.72,396.08a68.09,68.09,0,0,1,9,9.61c-.08-.2-.15-.4-.23-.59a22.08,22.08,0,0,1-.88-3.11,6.93,6.93,0,0,1-.24-3.13c0-.16.24,0,.28.08a19.2,19.2,0,0,1,1,3.27c.27,1,.59,1.88.92,2.81.46,1.29,1,2.53,1.61,3.77.74,1,1.46,2,2.16,3a11.45,11.45,0,0,1-.24-2.33c0-.43,0-.86.07-1.28a2.29,2.29,0,0,1,.22-1c.09-.16.29.05.33.15a12.43,12.43,0,0,1,.23,2.29c.09.76.17,1.52.32,2.26a16.34,16.34,0,0,0,.69,2.29l.33.68c.58,1,1.82,3.21,2.66,4.77l-.76,1c-.78-1.62-1.63-3.21-2.56-4.75s-2-3.23-2.66-4.21c-.56-.49-1.16-.92-1.76-1.35A15.9,15.9,0,0,0,34,409.09c-.83-.39-1.71-.65-2.54-1-.13-.06-.34-.42-.07-.43a7,7,0,0,1,2.65.63,14.6,14.6,0,0,1,2.26,1.16c-.54-.73-1.07-1.46-1.63-2.17-2.93-3.76-6.31-7.17-9.15-11C25.43,396.1,25.56,395.94,25.72,396.08Z" style="fill:#F83178"></path></g><g id="freepik--plants--inject-54"><path d="M459,382.64a61.43,61.43,0,0,0-2.34,9.37c-1,6.1-.31,27.34,0,33.49v0l-1.06.34s0,0,0-.05c-1.14-6.23-1.28-28.32-.05-34.5a66.22,66.22,0,0,1,2.48-9.05,33.81,33.81,0,0,1,4.3-9.06c.14-.19.34.22.29.34C461.49,376.62,460,379.54,459,382.64Z" style="fill:#F83178"></path><path d="M460,379.23c2.68-1.69,6.11-4.5,7.48-11.13s3.21-12.38,2.64-13.82-6.93,4.9-10.08,11.39S458.33,375.86,460,379.23Z" style="fill:#F83178"></path><path d="M462.76,384.13c-.56-1.05,1.35-4.21,6.16-7.1s11.9-4.71,12.51-4.1-4.53,6.84-9.89,9.3S463.28,385.1,462.76,384.13Z" style="fill:#F83178"></path><path d="M442.19,362.55c.75-.65,7.51,5.72,9.92,12.05,2.1,5.51,2.56,8.76,1.89,9.86l.13.21a16.35,16.35,0,0,1,1.28,2.94c.63,1.94,1.18,4.31.55,6.32,0,.12-.18,0-.19-.09-.45-1.85-.67-3.75-1.25-5.57a24.2,24.2,0,0,0-1.38-3.38c-1.52-.08-4.57-2.56-7.2-7.68C443,371.46,441.45,363.19,442.19,362.55Z" style="fill:#F83178"></path><path d="M457.79,399.43c-.66-1,.93-4.33,5.44-7.68s11.38-5.85,12-5.3-3.84,7.25-8.93,10.23S458.41,400.35,457.79,399.43Z" style="fill:#F83178"></path><path d="M456.07,389.4a3.71,3.71,0,0,1,1.22-2,14.69,14.69,0,0,1,2.19-1.82,28,28,0,0,1,5.38-2.79c.19-.07.4.35.24.47-1.57,1.14-3.25,2.1-4.87,3.19a14.75,14.75,0,0,0-2.11,1.67c-.31.29-.61.61-.89.92s-.51.74-.89.78C456.17,389.82,456.06,389.52,456.07,389.4Z" style="fill:#F83178"></path><path d="M456.9,399.29a12.85,12.85,0,0,1,1.8-1.41,8.37,8.37,0,0,1,2.07-.93c.18-.06.34.26.19.37a41.73,41.73,0,0,0-3.35,2.71,14.05,14.05,0,0,0-1.42,1.47,3.19,3.19,0,0,0-.73,1.47c-.08.45-.55.54-.68,0C454.42,401.58,456,400.17,456.9,399.29Z" style="fill:#F83178"></path><path d="M455.29,407.75l-.66.83c-1.76.06-6.68-2.86-9.83-7.22-3.69-5.11-4.76-10.42-4.44-11.18s7.21,2.65,11.25,8.64C454,402.35,455.26,406.23,455.29,407.75Z" style="fill:#F83178"></path><g style="opacity:0.65"><path d="M459,382.64a61.43,61.43,0,0,0-2.34,9.37c-1,6.1-.31,27.34,0,33.49v0l-1.06.34s0,0,0-.05c-1.14-6.23-1.28-28.32-.05-34.5a66.22,66.22,0,0,1,2.48-9.05,33.81,33.81,0,0,1,4.3-9.06c.14-.19.34.22.29.34C461.49,376.62,460,379.54,459,382.64Z" style="fill:#fff"></path><path d="M460,379.23c2.68-1.69,6.11-4.5,7.48-11.13s3.21-12.38,2.64-13.82-6.93,4.9-10.08,11.39S458.33,375.86,460,379.23Z" style="fill:#fff"></path><path d="M462.76,384.13c-.56-1.05,1.35-4.21,6.16-7.1s11.9-4.71,12.51-4.1-4.53,6.84-9.89,9.3S463.28,385.1,462.76,384.13Z" style="fill:#fff"></path><path d="M442.19,362.55c.75-.65,7.51,5.72,9.92,12.05,2.1,5.51,2.56,8.76,1.89,9.86l.13.21a16.35,16.35,0,0,1,1.28,2.94c.63,1.94,1.18,4.31.55,6.32,0,.12-.18,0-.19-.09-.45-1.85-.67-3.75-1.25-5.57a24.2,24.2,0,0,0-1.38-3.38c-1.52-.08-4.57-2.56-7.2-7.68C443,371.46,441.45,363.19,442.19,362.55Z" style="fill:#fff"></path><path d="M457.79,399.43c-.66-1,.93-4.33,5.44-7.68s11.38-5.85,12-5.3-3.84,7.25-8.93,10.23S458.41,400.35,457.79,399.43Z" style="fill:#fff"></path><path d="M456.07,389.4a3.71,3.71,0,0,1,1.22-2,14.69,14.69,0,0,1,2.19-1.82,28,28,0,0,1,5.38-2.79c.19-.07.4.35.24.47-1.57,1.14-3.25,2.1-4.87,3.19a14.75,14.75,0,0,0-2.11,1.67c-.31.29-.61.61-.89.92s-.51.74-.89.78C456.17,389.82,456.06,389.52,456.07,389.4Z" style="fill:#fff"></path><path d="M456.9,399.29a12.85,12.85,0,0,1,1.8-1.41,8.37,8.37,0,0,1,2.07-.93c.18-.06.34.26.19.37a41.73,41.73,0,0,0-3.35,2.71,14.05,14.05,0,0,0-1.42,1.47,3.19,3.19,0,0,0-.73,1.47c-.08.45-.55.54-.68,0C454.42,401.58,456,400.17,456.9,399.29Z" style="fill:#fff"></path><path d="M455.29,407.75l-.66.83c-1.76.06-6.68-2.86-9.83-7.22-3.69-5.11-4.76-10.42-4.44-11.18s7.21,2.65,11.25,8.64C454,402.35,455.26,406.23,455.29,407.75Z" style="fill:#fff"></path></g><path d="M473.81,403.78a12.29,12.29,0,0,0,8.53-6c2.85-4.42,5.81-8.08,5.79-9.27s-6.39,1.6-10.5,5.42S473.51,400.85,473.81,403.78Z" style="fill:#F83178"></path><path d="M468.57,406.61c-1,.27-2.15-4.32-1.22-8.54s3.18-7.18,3.72-7.36,1.61,6.5.71,9.74S469.19,406.44,468.57,406.61Z" style="fill:#F83178"></path><path d="M463,415.07c-1,.53-3.35-4.28-3.26-9.17s1.89-8.7,2.44-9,3.25,6.81,3,10.61S463.65,414.73,463,415.07Z" style="fill:#F83178"></path><path d="M468.2,413.83c-.72-.88,3.53-4.13,8.34-5s8.9.14,9.33.61-4.26,4.18-9.82,5C472.28,415,468.66,414.39,468.2,413.83Z" style="fill:#F83178"></path><path d="M476.6,400.88a68.08,68.08,0,0,0-9,9.6l.24-.59a22.29,22.29,0,0,0,.87-3.1,7.1,7.1,0,0,0,.25-3.13c-.05-.17-.24,0-.29.07a19.17,19.17,0,0,0-.95,3.27c-.27.95-.59,1.89-.92,2.82-.46,1.28-1.05,2.52-1.61,3.76-.74,1-1.47,2-2.16,3a10.62,10.62,0,0,0,.23-2.32q0-.64-.06-1.29a2.29,2.29,0,0,0-.22-1c-.09-.16-.3.06-.33.15a10.92,10.92,0,0,0-.23,2.29c-.09.76-.17,1.52-.33,2.27a15,15,0,0,1-.69,2.28l-.32.69c-.58,1-1.82,3.2-2.67,4.76l.76,1c.79-1.62,1.64-3.2,2.57-4.74s2-3.24,2.65-4.22a21.07,21.07,0,0,1,1.77-1.34,14.4,14.4,0,0,1,2.11-1.24c.82-.39,1.71-.64,2.54-1,.13-.06.33-.42.07-.43a7,7,0,0,0-2.66.63,13.34,13.34,0,0,0-2.25,1.17c.53-.73,1.06-1.46,1.62-2.18,2.94-3.75,6.32-7.16,9.15-11C476.88,400.9,476.76,400.74,476.6,400.88Z" style="fill:#F83178"></path></g></g><g id="freepik--Shadows--inject-54"><ellipse id="freepik--Shadow--inject-54" cx="89.18" cy="448.28" rx="69.1" ry="39.9" style="fill:#e0e0e0"></ellipse><ellipse id="freepik--shadow--inject-54" cx="409.54" cy="448.28" rx="69.1" ry="39.9" style="fill:#e0e0e0"></ellipse><polygon id="freepik--shadow--inject-54" points="262.95 340.15 363.07 397.95 237.7 470.5 137.58 412.53 262.95 340.15" style="fill:#e0e0e0"></polygon></g><g id="freepik--Supplies--inject-54"><path id="freepik--Parachute--inject-54" d="M459.2,70.06c.05-.3.09-.59.12-.89a.33.33,0,0,0,0-.29,24.46,24.46,0,0,0-48.26-7.67.35.35,0,0,0-.06.34c-.05.29-.11.57-.16.86.17-.15.35-.28.52-.42l19,21-8.83-1.4A3.12,3.12,0,0,0,418,84.21L415.71,98.6a3.12,3.12,0,0,0,2.59,3.56l21.59,3.42a3.12,3.12,0,0,0,3.56-2.59l2.28-14.39A3.12,3.12,0,0,0,443.14,85l-8.83-1.39L458.83,69.5A5.42,5.42,0,0,1,459.2,70.06Zm-.8-1.12-25,14.42,11.3-15.69C448.17,64.67,455.22,65.26,458.4,68.94Zm-22.5-8.13c4,.63,7.22,2.67,8.46,6.14L432.54,83.36l-.38-.06L426,64C428.22,61.11,431.91,60.18,435.9,60.81Zm-10.47,3.83L431.33,83,412,61.59C416.16,59.06,423.08,60.7,425.43,64.64Zm11.91,25.29c1.81,2.44.49,6.58-7.61,9.28C423,94,423.1,89.65,425.61,87.94a3.63,3.63,0,0,1,5.52,3A3.64,3.64,0,0,1,437.34,89.93Z" style="fill:#e0e0e0"></path><path id="freepik--parachute--inject-54" d="M483.23,134.69c0-.17-.09-.34-.13-.5a.21.21,0,0,0,0-.17,14.06,14.06,0,0,0-27.37,6.26.17.17,0,0,0,0,.19c0,.17.06.33.1.49.05-.11.12-.22.18-.33l14.63,7.14-5,1.15a1.79,1.79,0,0,0-1.34,2.14l1.87,8.16a1.79,1.79,0,0,0,2.14,1.35l12.24-2.81a1.79,1.79,0,0,0,1.34-2.14L480,147.46a1.79,1.79,0,0,0-2.15-1.34l-5,1.14,10-12.79A2.27,2.27,0,0,1,483.23,134.69Zm-.67-.43-10.24,13.05L475,136.52C476.19,134.18,480.08,133,482.56,134.26Zm-13.74.49c2.27-.52,4.42-.13,5.83,1.46l-2.79,11.28-.21,0-7.43-8.95C464.79,136.56,466.56,135.27,468.82,134.75ZM464.06,139l7.09,8.54-14.91-7.29C457.92,138.05,462,137.44,464.06,139ZM475.83,150c1.49.91,1.67,3.4-2.07,6.57-4.71-1.33-5.58-3.68-4.61-5.12a5.57,5.57,0,0,0,6.68-1.45Z" style="fill:#e0e0e0"></path><path id="freepik--parachute--inject-54" d="M21.15,134.47l10,12.79-5-1.14A1.79,1.79,0,0,0,24,147.46l-1.87,8.16a1.79,1.79,0,0,0,1.35,2.14l12.24,2.81a1.79,1.79,0,0,0,2.14-1.35l1.87-8.16a1.79,1.79,0,0,0-1.34-2.14l-5-1.15L48,140.63a2.79,2.79,0,0,1,.19.33c0-.16.07-.32.1-.49a.19.19,0,0,0,0-.19A14.06,14.06,0,0,0,21,134a.21.21,0,0,0,0,.17c-.05.16-.09.33-.13.5A2.27,2.27,0,0,1,21.15,134.47Zm7.92,2.05,2.67,10.79L21.5,134.26C24,133,27.87,134.18,29.07,136.52Zm10.77,2.07-7.43,8.95-.21,0-2.79-11.28c1.4-1.59,3.56-2,5.83-1.46S39.27,136.56,39.84,138.59Zm8,1.7-14.91,7.29L40,139C42.1,137.44,46.14,138.05,47.82,140.29Zm-16.5,11.55a2.09,2.09,0,0,1,3.59-.42c1,1.44.1,3.79-4.61,5.12-3.74-3.17-3.56-5.66-2.07-6.57A2.09,2.09,0,0,1,31.32,151.84Z" style="fill:#e0e0e0"></path><path id="freepik--parachute--inject-54" d="M89.29,69.21c0-.3-.07-.59-.11-.89a.38.38,0,0,0,0-.29,24.46,24.46,0,0,0-48.59,5.2.36.36,0,0,0,0,.35c0,.28,0,.57.07.86.12-.19.26-.36.39-.53L64.85,89.25l-8.88,1a3.1,3.1,0,0,0-2.76,3.42l1.55,14.49a3.13,3.13,0,0,0,3.43,2.76l21.73-2.34a3.1,3.1,0,0,0,2.76-3.42L81.12,90.63a3.1,3.1,0,0,0-3.42-2.76l-8.89,1,20-20.06A5.24,5.24,0,0,1,89.29,69.21Zm-1.06-.87L67.86,88.79l6.81-18.1C77.23,66.89,84.2,65.61,88.23,68.34Zm-23.84-2c4-.43,7.66.7,9.76,3.73L67,89l-.38,0-11-17C57.05,68.67,60.37,66.8,64.39,66.36ZM55.28,72.8,65.78,89,41.5,73.37C44.87,69.83,52,69.6,55.28,72.8Zm18.1,21.3c2.38,1.89,2.19,6.23-4.92,10.94-7.88-3.27-8.9-7.5-6.92-9.8a3.63,3.63,0,0,1,6.11,1.47A3.64,3.64,0,0,1,73.38,94.1Z" style="fill:#e0e0e0"></path></g><g id="freepik--World--inject-54"><g id="freepik--world--inject-54"><circle cx="250" cy="157.26" r="134.68" transform="translate(-37.98 222.84) rotate(-45)" style="fill:#ebebeb"></circle><path d="M120.47,137.17c-.23-.43-1.8-4.74-1.75-4.77a.52.52,0,0,0,.3-.46c0-.17-.61-.78-1-1.41-.33,1.62-.62,3.24-.89,4.87.42.72,1.18,1.48,1.51,2,.45.66,1.08,2.79,1.82,2.88C121.76,140.43,120.7,137.6,120.47,137.17Zm52-87.38a4.37,4.37,0,0,0,1.8.68,1.37,1.37,0,0,1,.75.37c.55.62-1.16,2.2-.78,2.91.24.43,1,.42,1.57.51a11.42,11.42,0,0,0,2.56.32,7.25,7.25,0,0,0,1.7-.35,26.93,26.93,0,0,1,4.15-.54,2.2,2.2,0,0,0,2.22-1.87c.18-1-.66-1.09-1.73-1-1.44.15-3.13.55-3.54.56s-.6,0-.41-.3c.38-.49,2.11-.7,2.44-.77l2.12-.52c1.16-.27,2.46-.46,3-.57a6.31,6.31,0,0,0,1.05-.28,5.83,5.83,0,0,0,1.54-.8c.89-.78.42-1.34,1.24-2a7.7,7.7,0,0,1,2.24-1,21.79,21.79,0,0,0,2.35-1c1.45-.82,1.61-2.08,2.76-3.19a8.11,8.11,0,0,1,2.19-1.49c1.14-.56,2.68-1.17,3.54-1.63l1.56-.82a9.6,9.6,0,0,0,1.78-1.2c.37-.31.71-.71,1.06-1a3.09,3.09,0,0,1,1.08-.63,6.55,6.55,0,0,0,3-2.27c.92-1.36-.29-1.19-.48-1.54-.33-.61-1.05-.66-1.86-.67-1.77,0-4,.49-6.14.69-3,1.06-6,2.22-8.94,3.51-2.55,1.11-5,2.31-7.46,3.55a3.8,3.8,0,0,0,1.32.75c1.12.54,3.32-.4,5-.64.74-.11,3-.69,3.06,0,0,1-2.57,1.84-3.12,2a2.89,2.89,0,0,0-1.28.63c-.73.67-1.9,1.54-2.46,1-.36-.34-.64-.77-1.09-.91a.86.86,0,0,0-1,.32c-.58.63-2.12,1.57-2.2.7,0-.52.11-1.21-.24-1.48s-.74-.28-1-.54c0,0-.07-.11-.11-.17q-3.68,2-7.17,4.18a2.62,2.62,0,0,0,.41.68,4,4,0,0,0,2.26,1.18,8.32,8.32,0,0,0,1.49,0c.6-.06,2.1-.71,2.44-.48s-.57,1.41-1.24,2a12.07,12.07,0,0,1-3.76,2.23c-2.1.73-3.21.67-4.41.19-.41-.16-2-.93-2.85-.39S172.14,49.5,172.43,49.79ZM160.67,61.5c1.26,1,3.28-.22,4.52-1.53,1.57-1.65-.48-2.09.45-2.6.65-.36,1.46-.8,1.24-1.15-.06-.12-.25-.15-.32-.26s-1-.28-2.61.26-2.29,1.9-3.45,2.18S159.83,60.81,160.67,61.5Zm7.71-8.64c.26-.26,1.72-1.85,1.46-2.71-.13-.42-.57-.44-1.07-.28-.67.51-1.33,1-2,1.56a5.63,5.63,0,0,0,.18,1.34C167,53.53,168.12,53.12,168.38,52.86ZM212.16,36c-.88,1.37-2.52.76-3.2.93a4.89,4.89,0,0,0-1,.4,4.45,4.45,0,0,0-1.57,2.39c0,.31-.17.57-1.18,1.2a24.33,24.33,0,0,1-4.07,2,6.27,6.27,0,0,0-2.9,2.26c-.77,1-.35,1.09-.07,1.51a1.63,1.63,0,0,1,.25.72c.07.47-.1,1.67.42,1.94s2.36-.19,3.73-.46c2.31-.45,4.47-.68,5.18,1.3a4.21,4.21,0,0,1,.17,2.12,20.71,20.71,0,0,1-2.12,5.13,4.1,4.1,0,0,0-.69,2.32c.29,1.36,1.83,1.6,2.11,3.14.21,1.22-.49,2.75-1.45,4.07-1.06,1.47-2.13,1.89-3.28,3.09s-1.09,2.74-1.53,4.09a13.58,13.58,0,0,0-.55,5.08,38.52,38.52,0,0,0,.74,5.46,5.91,5.91,0,0,0,.67,2c.56.93,2.46,1.43,3.88,1.33a4.55,4.55,0,0,0,2.61-1c1.77-1.5,1.92-4.25,2.88-6.31a5.73,5.73,0,0,1,3.6-3.3c1.39-.44,3.17-.61,4.47-1.76,1.08-.94,1.9-2.55,3-3.4,1.49-1.13,3.45-.75,4.95-1.13,1-.26,3.14-.94,3.56-2.35.22-.76,0-1.21.49-1.9a2.89,2.89,0,0,1,1.24-.82c.18-.08.49-.1.79-.18s.75-1.07.53-1.6c-.15-.37-.33-.72-.4-1-.49-1.81-.38-3.2,1.08-3.94,1.23-.62,3.43-1.92,3.36-4.09-.05-1.31-.68-1.88-.42-3.28a5.45,5.45,0,0,1,.52-1.49,15.1,15.1,0,0,1,1.7-2.1,1.65,1.65,0,0,0,.38-1.39c-.16-1-1.05-1.24-1.42-1.9-1.87-3.39,7-7.87,6.48-9.41a1.22,1.22,0,0,0-.61-.57,7.21,7.21,0,0,0-1.68-.54,3,3,0,0,0-1,0,2.93,2.93,0,0,0-1.32.81c-.71.63-1.59,1.31-1.77,1-.07-.11-.08-.35-.22-.68-.4-.95-.58-.29-1.3,0-.36.13-1.5,0-1.4-1s1.33-1.9,1.73-2.39a2.58,2.58,0,0,1,1.09-.82c.62-.22.78-1.59.05-2.51a6.12,6.12,0,0,0-2.59-1.77,9.06,9.06,0,0,0-6-.24,12.9,12.9,0,0,0-3.25,1.33c-1.48.85-3.17,3.08-4.85,4a2.17,2.17,0,0,1-2.42,0c-1.29-.61-2.94-1.38-5.79.76C212.06,34.31,213,34.61,212.16,36Zm154,169.29a10.32,10.32,0,0,0,.64,6.8c1,1.47,2.84,2.38,4.74,1.12a3.36,3.36,0,0,0,.8-.75c.38-.48.89-1.49,1.39-2.07.72-1.68,1.4-3.39,2.06-5.11a2.11,2.11,0,0,1,.51-2.26c.93-1.05,1.35-2.64.1-3.06s-2.09.82-3.21,1.68a27.81,27.81,0,0,1-4.31,2.61C367.94,204.66,366.69,203.78,366.14,205.24ZM266.84,45.4c.28.41.5.94.76,1.38a6.16,6.16,0,0,0,1.11,1.35,16,16,0,0,1,1.41,1.47,1.51,1.51,0,0,1,.13.29c.13.38,0,.28-.05.53-.12.48.13.81.55,1.14a13.19,13.19,0,0,1,1,1c.56.55,1.75,1,2.07.32a5,5,0,0,0,.38-1.36,10.75,10.75,0,0,1,.51-2.3c0-.06.06-.19.1-.31s.52-.34,1,.07c.35.27.71.62.92.78s.29.21.37.29a.72.72,0,0,1,.1.66.38.38,0,0,0,.05.25c.11.22.25.26.39.37a6,6,0,0,0,1.55.9,1.94,1.94,0,0,0,.67.09.66.66,0,0,0,.33-1.09A20.37,20.37,0,0,1,278,49.48a6.45,6.45,0,0,1-1.09-1.66c-.52-1.19.3-1.26.95-1.14a8.39,8.39,0,0,0,1.57.13,3.35,3.35,0,0,0,2.19-.79,1.58,1.58,0,0,0,.14-1.21l-.06-.12a2.22,2.22,0,0,0-2-1c-.83-.08-1.75-.21-2.61-.38a5.24,5.24,0,0,1-1.14-.23,3.07,3.07,0,0,0-.85-.32,3.8,3.8,0,0,0-1.55.37,2.86,2.86,0,0,1-1.8.19c-.35-.09-.91-.4-1,0-.16.64.54,1.38.58,2s-.49.22-.77-.22-.18-1-.44-1.39-.51-.28-.61-.1-.16.84-.72.3c-.32-.31-.42-.66-.8-.85-.65-.33-2.26-.1-1.87,1.22A3.53,3.53,0,0,0,266.84,45.4Zm49,32.61a17.46,17.46,0,0,0,1.51,1.38,2.36,2.36,0,0,0,2.35.38c.46-.28.08-1.23-.12-1.91-.08-.26-.18-.51-.26-.75a6.34,6.34,0,0,1-.15-2.46,5.16,5.16,0,0,1,.42-1.44A5.64,5.64,0,0,1,321.49,71,16.59,16.59,0,0,1,325.85,69c.73-.21,1.47-.38,2.22-.53.45-.09.91-.17,1.37-.24a7.53,7.53,0,0,0,1.08-.05,1.05,1.05,0,0,0,.27-1.82,1.53,1.53,0,0,0-.36-.29,1.31,1.31,0,0,0-1.07-.06,8.82,8.82,0,0,1-2.88.15c-4-.34-7.46.52-9.41,3.85a20.22,20.22,0,0,0-1.86,3.63c-.12.49-.24,1-.78,1-.33,0-.5.08-.45.54A4.87,4.87,0,0,0,315.81,78Zm-72.46,3.57c1.23-1.69-.52-4.9-1.48-4.92a7.44,7.44,0,0,0-1.73.55,10.91,10.91,0,0,1-1.89-.12c-1.05-.06-2.3,1.22-2.88.12s-1.81,1.9-1.06,3.88C236,85.66,241.51,84.12,243.35,81.58ZM367.2,217.7a21.06,21.06,0,0,0-3.35-.59,4.25,4.25,0,0,1-1.74-.61,2,2,0,0,1-.66-.78,4.13,4.13,0,0,1,.33-2.62,3.66,3.66,0,0,0-.29-2.82c-.17-.38-.33-.78-.51-1.14-.3-.59-.81-.92-1.08-1.52a3,3,0,0,1-.31-2,1.87,1.87,0,0,1,.71-1,3.4,3.4,0,0,0,.88-2.44c-.06-.52-.17-1-.23-1.4a15,15,0,0,0-.51-2c-.1-.33-.31-.57-.41-.9a14.57,14.57,0,0,1-.22-7.44c.22-.71.61-1.4,1.23-1.25a1,1,0,0,1,.49.31,6.32,6.32,0,0,1,.87,1.5c.21.47.43.93.53.94,1.28.13.51,4.74,2.53,3.15.62-.49,1.41-.69,2.06-1.17a7.9,7.9,0,0,0,.78-.65,7.11,7.11,0,0,0,1.54-2.31,6.38,6.38,0,0,0,.33-1.73,9.45,9.45,0,0,0-.66-3.6,10,10,0,0,0-.82-1.85,1.89,1.89,0,0,1-.49-1.63c.26-1.74,2.08-3.44,3.48-2.64a2.42,2.42,0,0,0,2.8,0,11.72,11.72,0,0,1,3.39-1.92c1.63-.4,3.74-.71,5.15-1.79l.38-.3a135,135,0,0,0,1.25-16.72c0-.6,0-1.58,0-2.43a135,135,0,0,0-25.41-77.69l-.83-.09a19.2,19.2,0,0,0-3.88-.46,3.46,3.46,0,0,0-2.5,1.61,3.2,3.2,0,0,1-1.35,1.26,3.56,3.56,0,0,1-2.1,0c-.54-.11-1.57-.36-1.52.57s1.17,2.29,1.5,3.17c.74,2-1.45.06-2-.43a7,7,0,0,0-2-1.37c-.42-.15-1.34-.63-1.48-.11a4.44,4.44,0,0,0,.44,1.8c.25.73.26,1-.25,1s-1.1,0-1.64.07a5.08,5.08,0,0,1-2.63-.37,5,5,0,0,1-2-3.25,3.58,3.58,0,0,0-.82-1.84,3.37,3.37,0,0,0-1.44-1c-1.1-.31-1.45.74-1.44,1.91s-1.06,1.29-.93,2.41a7.17,7.17,0,0,0,1.53,3.07c.53.78,1.52,1.92,1.08,2.64-.63,1-2-.11-2.92-1-1.25-1.17-2.58-2.13-3.84-3.31a9,9,0,0,0-3.65-2c-.7-.2-1.21.09-.54,1.12.32.48,1.52,1.47,1.25,2.16s-1.83.21-2.36.17a17.63,17.63,0,0,1-4.41-.65c-1.11-.36-2.23-1.07-3.31-1a5.59,5.59,0,0,0-1.5.23,3.43,3.43,0,0,0-1.59,1.32.72.72,0,0,1-.46.3,2.22,2.22,0,0,1-.59.07,1.75,1.75,0,0,1-1.31-1.75c.09-.67.23-1.39-.29-1.89a2.82,2.82,0,0,0-2.21-.6.86.86,0,0,0-.56.61c-.17.51-.12,2-.41,3a2.25,2.25,0,0,1-.91,1.34,5.45,5.45,0,0,1-1.25.37,2.51,2.51,0,0,0-1.38,1.15c-.74,1-1.34,1.93-2.51,2s-1.94-.55-2.82-2a27.15,27.15,0,0,1-1.78-3.06c-.73-1.65,1.25-.55,1.8-.33.82.33,1.65.43,2.46.7a8.9,8.9,0,0,0,2.06.43c.55,0,1.53.08,1.62-.83.18-2-3.35-4.85-4.36-5.73-.49-.42-1-.83-1.48-1.22-.83-.64-2.24-1.69-3.16-2.35a5.5,5.5,0,0,0-1.69-.9c-.93-.2-1.86.92-2.6-1.12a2.86,2.86,0,0,0-1.71-2.09,9.24,9.24,0,0,0-5.47-.63,5.06,5.06,0,0,0-1.44.58c-.76.43-1.63,1.39-2.19,1.58a1.79,1.79,0,0,1-1.1,0c-2.22-.6-3.34,1.29-4,4-.18.72-.29,1.56-.52,2.25a4.36,4.36,0,0,1-.58,1.09c-.37.54-1.27,1.78-2,2.81l-1.32,1.91c-1.24,1.85-2.63,3.72-4.07,5.66a8.06,8.06,0,0,0-1.94,4.8,5.15,5.15,0,0,0,1.69,3.5,3.51,3.51,0,0,0,3.56.81c1.8-.35,2.4.62,2.89,2.81a5.63,5.63,0,0,0,1,2.76,3.12,3.12,0,0,0,2.51.84c1-.19,1.45-1.14,1.52-2.34A3.37,3.37,0,0,1,278.2,102a2.79,2.79,0,0,0,.61-2.68c-.28-1.66-1.11-3.85-1.18-4.93a4.4,4.4,0,0,1,.23-1.83,7.35,7.35,0,0,1,.66-1.38c.42-.68,1.7-1.84,2.67-2.95a8.13,8.13,0,0,0,1.49-2.41,4.83,4.83,0,0,1,.63-1.16,1.83,1.83,0,0,1,2-.17,1.7,1.7,0,0,1,.89,1.09,3.9,3.9,0,0,1-.75,2.86c-.57.88-1.44,1-2.07,1.76a7.76,7.76,0,0,0-.91,3.55c-.13,1.18-.41,2.73.1,3.82.63,1.36,2.28,1.3,3.35,1.37.48,0,1,.08,1.56.16a5.66,5.66,0,0,1,2.19.8c.32.28.53,1.35.13,1.51a2.25,2.25,0,0,1-.78.06c-1.07,0-2.14-.31-3.2-.37-.68,0-1.73-.26-2,.76-.2.78.46,1.56.81,2.12a2.2,2.2,0,0,1,.5,1.86.63.63,0,0,1-.82.41,3.22,3.22,0,0,1-1.3-1.2c-.22-.32-.49-.94-.87-.8-.6.21-.56,2.24-.62,2.87a5.51,5.51,0,0,1-.94,3c-1.38,1.6-3.65,1.2-5.43.86a19.11,19.11,0,0,1-3.18-1.12,5.58,5.58,0,0,1-2-1c-1.29-1.28-.11-3.89-.19-5.55-.1-2-1.9-.87-2.35.22-.72,1.71.4,4-.43,5.59-.57,1.1-2,.93-2.93,1.16a3.85,3.85,0,0,0-2.55,3c-.22.8-.86,1.17-1.39,1.63-.73.64-1.52,1.13-2.26,1.69a2.42,2.42,0,0,1-1.86.61c-.44-.06-1-.48-1.4-.23s-.27,1-1,1.14-1.59-.28-2.34-.28c-.51,0-1.29.24-.9.94s1.29,1.07,1.79,1.5a4.39,4.39,0,0,1,1.18,3.77c-.1,2-.82,3.54-2.71,3.45s-3.6-.74-5.57-.16c-1.71.5-2.11,3.61-2.35,5.35a3.38,3.38,0,0,0,.25,2.07,6.9,6.9,0,0,0,.6,1.69,2.54,2.54,0,0,0,1.88.85,2.42,2.42,0,0,1,1.83,1,2.71,2.71,0,0,0,.37.38c.24.17.7-.48,1.24-.52a3.71,3.71,0,0,1,1,.16,3,3,0,0,0,.93.19c.33,0,.51-.33.74-.38.95-.21,1.49-1.09,1.92-2,.2-.45.37-.93.59-1.37a14.86,14.86,0,0,1,1-1.36,8,8,0,0,1,.6-1.07c.53-.61,1.12-.42,1.78-.53a2.08,2.08,0,0,0,1.66-1.61c.24-.7.32-1.54,1.05-1.74.58-.15,1.17.35,1.74.46a5.41,5.41,0,0,0,2.79-.77c1.79-.69,3.07,0,3.86,1.95a14.57,14.57,0,0,0,1.22,2.51c.39.59.94,1,1.32,1.56.49.75,1.13,1.35,1.6,2.07s.23,2.09-.11,3c-.13.36-.51.91-.29,1.28s.69.1.94-.11c.83-.69.83-1.66,1-2.77.07-.5.09-1.12.52-1.21.18,0,.38.11.57.2s.43-.94-.19-1.58a3,3,0,0,0-1.23-.8c-.35-.07-1.07-1.44-1.31-1.78a20.43,20.43,0,0,1-1.66-2.62,4.32,4.32,0,0,1-.67-2.38c.18-1.24,1.39-1,2-.33s.44,1.24.67,1.91c.51,1.48,1.89,2,2.86,2.83.67.61.57,1.29.76,2.23a12,12,0,0,1,.49,2.15,1.5,1.5,0,0,0,.24,1,8.21,8.21,0,0,0,.88,1.12,5.14,5.14,0,0,1,.88,1c.23.44.11.38,0,.79-.26.88-.42,1.79.33,2.4s1.16-1,1.57-1.61a1.72,1.72,0,0,0,.44-1.41c-.09-.5-.54-.88-.67-1.37-.33-1.25.75-1,1.34-1.29.74-.39,1.58-1.14,2.41-.31.47.48.31.86.18,1.46a5.42,5.42,0,0,0,.15,2,7.91,7.91,0,0,0,.21,2,4.69,4.69,0,0,0,3.39,2.74c.59.09,1.2-.31,1.78-.08.24.1.38.35.6.49a2.82,2.82,0,0,0,1.3.33c.59,0,1.18-.07,1.78,0,1,.14,1.21.45.81,1.53a39.76,39.76,0,0,0-1.64,5c-.15.63-.21,2.27-.67,2.68s-1.36-.66-1.8-1a8.89,8.89,0,0,0-4.31-1.36,20.61,20.61,0,0,1-2.35-.27,4.39,4.39,0,0,1-2.11-.76c-1-1.05-3.55-4-5-2.26-1,1.17-.9,3.64-2.82,3a9.1,9.1,0,0,1-2.38-1.68,21,21,0,0,0-3.73-2.18,4.91,4.91,0,0,1-2.31-1.91c-.76-1.31.79-1.47,1.13-2.62a3.27,3.27,0,0,0-.58-3,3.86,3.86,0,0,0-2.35-.76c-.43-.05-.79-.21-1.21-.28a5.73,5.73,0,0,0-1.42.16,13.82,13.82,0,0,1-3-.12l-1.58-.18c-.31,0-1.1-.23-1.38,0-1.48,1-3.31,2-5.1,1.65-1.14-.24-2-.74-3.25-.42a10.66,10.66,0,0,0-3.25,1.7c-.85.59-1.66,1.23-2.47,1.88s-1.06,1.94-1.22,3.19a3.19,3.19,0,0,1-.92,2A7.24,7.24,0,0,1,236,151.6a6.93,6.93,0,0,0-3.28,2.11,19,19,0,0,0-2,3.27,10.92,10.92,0,0,0-.74,7.74c.22.68-.89,2.52-1.12,3.18a6.46,6.46,0,0,0-.34,3.77,6,6,0,0,0,1.1,2.33c1,1.37,1.52,3.16,2.34,4.76a24.9,24.9,0,0,0,2.71,4.31,9.19,9.19,0,0,0,5,3.35,5.39,5.39,0,0,0,2.9,0,4,4,0,0,1,1.56-.16,9.14,9.14,0,0,0,3.25-.34c.56-.22,1.13-.49,1.64-.71a3.49,3.49,0,0,1,3.39,0,5.38,5.38,0,0,1,1.19,1.05,13.56,13.56,0,0,0,2.27,2.22,4.11,4.11,0,0,0,1.36.53,3.57,3.57,0,0,1,2.07,1.33c1.41,1.84.21,3.9-1,5.67s-.65,3.53-.06,5.09c.28.75.45,1.5.75,2.2a7.18,7.18,0,0,1,.76,2.45c0,.83.13,1.59.19,2.37a17.4,17.4,0,0,1-.45,4.72c-.19.76-.43,1.51-.68,2.26-.13.36-.26.73-.4,1.09a12.59,12.59,0,0,1-.9,1.95,5.84,5.84,0,0,0-.48.86,11.76,11.76,0,0,0-.72,2.27c-.3,1.29-.86,3.54-1.14,4.84a11.41,11.41,0,0,0-.28,2.35,59.88,59.88,0,0,0,1.31,10.22c.29,1.6.49,3.24.76,4.82.14.8.19,1.65.39,2.45a11.51,11.51,0,0,1,.09,2.63c.06,1.81.48,3,1.82,3.58a6.28,6.28,0,0,0,3.67.07,15.09,15.09,0,0,0,7.34-3.57,19.37,19.37,0,0,0,3.49-4.43,12,12,0,0,0,1.24-2.36c.32-.89.57-1.82,1-2.69.59-1.33,1.14-2.8,1.8-4.09,1-2,1.64-3.82,3.39-5.22a27.4,27.4,0,0,1,2.54-1.7c1.37-.89,3.87-2.31,4.26-4.5,1.83-10.35.05-18.87,10.5-25.14,2.9-2.39,6.82-6.51,8.38-10.64.74-2-.41-3.44-1.77-3.11a21.3,21.3,0,0,1-2.46.47c-.76.1-1.52.07-2.27.12a3.73,3.73,0,0,1-2.05-.82,2.18,2.18,0,0,1-1.13-1.71c-.15-.83.07-1.61,0-2.43a3.76,3.76,0,0,0-1-1.89,14.51,14.51,0,0,1-2.21-4.33,17.4,17.4,0,0,1-.52-5,8.22,8.22,0,0,0-.91-3.21,20.41,20.41,0,0,1-1.09-3.23c-.28-1.1-1.37-4.93.17-5.47,1.22-.43,1.59,3,1.86,3.88.53,1.82,1.14,3.5,1.78,5.16.33.85.66,1.71,1,2.56.55,1.42,1.19,3.16,1.45,3.88.15.43.3.86.44,1.3a9.74,9.74,0,0,1,.77,2.53c0,3.36.73,5.28,2.56,5.43s4.37-1.26,6-1.88a51.31,51.31,0,0,0,8.41-4,11.48,11.48,0,0,0,1.86-2,8.48,8.48,0,0,0,1.78-2.55,1.8,1.8,0,0,0-.44-2.18c-.42-.36-1-.25-1.33-.65s-.37-1.38-.66-1.95c-.56-1.12-1.44-.51-2.29-.17s-2.64,1.12-3.32.36c-.48-.53-.1-1-.28-1.64s-.57-.39-1-.58c-1-.47-1.17-2-1.51-3.09-.27-.8-.84-2.59-.44-3.46.69-1.46,2,.81,2.36,1.41a22.88,22.88,0,0,1,1.51,2.08,3.51,3.51,0,0,0,1.43,1.45,14.13,14.13,0,0,0,1.77,1.12c.48.18,1,.06,1.51.32a1.87,1.87,0,0,1,.68.66,5.09,5.09,0,0,0,3.14,2.15c1.43.21,2.95.08,4.3.17a6.27,6.27,0,0,1,3.12.76,6.07,6.07,0,0,1,2.33,3.22c.27,1.08.42,2.56,1.36,3.22s1.95-1.63,2.46-1c.28.35.1,1.3.07,1.74a15.32,15.32,0,0,0,0,1.66c.05,1.28.1,2.57.16,3.87a60.94,60.94,0,0,0,.69,8c.22,1.24.54,3.12,1.55,3.68.45.24,1.3-.3,1.7-.72a6.16,6.16,0,0,0,.88-1.52,21.05,21.05,0,0,0,.84-2.11,24,24,0,0,1,1.65-3.88,14.46,14.46,0,0,1,1.09-1.56,15.18,15.18,0,0,1,2.42-2.45,11.88,11.88,0,0,0,2-1.54c.25-.27.49-.55.73-.83a19.84,19.84,0,0,1,1.49-1.54,2.09,2.09,0,0,1,.84-.51,5.82,5.82,0,0,1,1.1,0c.74,0,1.05-.57,1.7-.82s1.17.34,1.47.83c.88,1.38.59,3.35.5,5-.05.83-.14,1.9.63,2.11s1.31-.21,1.82.53.38,2.12.6,3.11.91,1.45.85,2.5c0,.67-.31.74-.65,1.2s-.26.86-.19,1.42a3.23,3.23,0,0,1-.23,1.8,5.34,5.34,0,0,0-.67,1.6.79.79,0,0,0,.43.8,2.34,2.34,0,0,1,.85,1.63c0,.42,0,.85,0,1.16a6.57,6.57,0,0,0,.12,1.38c0,.15.1.27.15.4a3.15,3.15,0,0,1,0,1.48c-.11.37-.28.7-.57.78s-.54-.13-.8-.39-.95-1-1.3-1.26a1.85,1.85,0,0,0-.71-.41c-1.35-.32-.37,3.18-.12,3.76s.49.86.7,1.34a4,4,0,0,1,.22,1.57A17.31,17.31,0,0,0,357,211a13,13,0,0,0,1.13,3,5.55,5.55,0,0,0,.85,1.19c.09.11,1.05.82,1,.87-.84,3.91,2.86,2,4,3.42.89,1.26,2.3,1.08,3.64,1.17a5.29,5.29,0,0,0,1.06,0l.49-.95c-.45-.21-.91-.42-1-.87A1.64,1.64,0,0,0,367.2,217.7Zm-67.78-79.17a14.36,14.36,0,0,1-3.37-1.49c-1.55-.82-4.23-.61-5.9-.52a5.32,5.32,0,0,1-2.42-.32c-1.57-.73,0-4.3,1-6a7.69,7.69,0,0,1,1.81-2.38c1.43-1,3.74,1,3.25,1.36s0,.95.06,1.44.43,1,.95.65.31-2.55,1.9-3.1a5.25,5.25,0,0,1,.6-.17c1.63-.38,2.27.59,1.73,2.52a3.89,3.89,0,0,0-.17,1.41c.17,2.06,2.13,2.62,2.11,2.84s.69.62,1.17,1.43S301.08,138.89,299.42,138.53Zm12.82,9.16c-1.45-1-1.23-3.85-.93-5.61s-2.24-3.87-2.24-5.91c0-3.63,3.4-5.87,5.55-5.35,1.66.41.14,2.71-.93,4.22-.37.52-.18,1.09.26,1.92.92,1.75,2.29,2.69,2.9,3.52s-.42,1.58-1.36,1.72,1.32,3.25.62,5.07C315.57,148.71,313.78,148.76,312.24,147.69Zm-53.4-13.84c.68-.51.66-1.16-1.09-1.37-.27-.07-.77.34-1.12.81C256.13,134,257.68,134.73,258.84,133.85Zm40,90.29a5.91,5.91,0,0,0,0-2.59,4.63,4.63,0,0,1-.31-.63c-.05-.16-.09-.36-.14-.55a2.22,2.22,0,0,0-.21-.63c-.17-.29-1.12-.09-1.48.77-.23.55-.38,1.2-.52,1.62-.71,2.29-2.8,3.06-4.24,4.56-2,2.1-2,4.7-2.52,7.19-.34,1.63-1.54,3.7-1.22,5.25,1,5.07,5.18-1.9,6.37-4.1a44.4,44.4,0,0,0,3.8-9C298.56,225.42,298.73,224.78,298.85,224.14Zm-27.59-83.57a1.42,1.42,0,0,0-.59-2c-.42-.28-.58.23-.71.83C269.81,140.21,270.61,141.67,271.26,140.57Zm-4.88-5.78c1-1.6.44-6.93-.56-5.21a8.54,8.54,0,0,0-.46,1C264.63,132.47,265.41,136.39,266.38,134.79Zm-18.27-29.4c-.32.15-.3.56-.58.72s-1-.12-1.41-.1c-1.16.08-.49,1.42-.43,2.12a2.55,2.55,0,0,1-.32,1.39c-.21.4-.6.82-.52,1.34.24,1.38,1.78.82,2.59.72a3.75,3.75,0,0,0,2.46-2,3.53,3.53,0,0,0,.08-2.44C249.72,106.37,248.91,105,248.11,105.39Zm-88.83,45a7.93,7.93,0,0,1-3.33-1.82c-.95-.8-2.06-1.75-3.25-1.46-.89.23,0,1.33.48,1.82a13.62,13.62,0,0,0,1.15,1c.66.52,1.5,1.45,2,1.85a1.71,1.71,0,0,0,1,.41c1.47.11,3.08-.55,4.37.78.31.31.75,1.17,1.21,1.18H163c.49-.1.54-1,.4-1.45C162.88,150.79,160.53,150.64,159.28,150.34Zm92.51-37.77c-.1.64-1.09.65-.93,1.36s.92.55,1.34.59c1.73.14,4.12,0,5.55-1.31.55-.52,1.71-1.83,1-2.56-.27-.28-.66-.36-.91-.71a4.94,4.94,0,0,1-.56-1.49,17.34,17.34,0,0,0-.68-2.47c-.47-1.16-1.92-2-1.42-3.54.16-.51.9-.87.81-1.49,0-.35-.37-.47-.57-.66s-1.07-1.28-.9-1.72-2.44-1-2.35,0c.13,1.4-2.1,1.46-1.26,2.48l.11.13a16.74,16.74,0,0,0-.4,1.72c-.09,1,1.16,1.55,1.11,2.37s1.34.42,1.64,1.21,0,2.33-.77,2.5-.74,1.77-1.3,2c-.36.18-.73.34-.53.92C250.9,112.25,251.9,111.81,251.79,112.57ZM166.67,75.85c-1,1.59-1.49,3.16-.77,3.66s3-.34,4.46-.49c2.14-.21.64-1.44-.47-3C169.15,74.91,167.71,74.25,166.67,75.85Zm31.82,138.42a17.91,17.91,0,0,1,.09-5.35c.79-3.2,4-4.76,4.94-8.1.58-2.08-1.28-4.48-2.69-5.44s-2.72-4-4.46-4.23l-.57-.08c-1.74-.26-4-3-5.58-3.91a9.36,9.36,0,0,0-1.15-.56c-1.68-.73-3.36-3.16-3.95-5.3-.54-2-1.29-3.9-2.58-4.91-1.74-1.37-4.55-.23-5.84-2.54a8.74,8.74,0,0,0-2.07-2.67,9.17,9.17,0,0,1-2.29-2.5c-.83-1.53-1.9-.65-3-1.4-.65-.43-.84-.84-1.67-1a30.54,30.54,0,0,1-3.18-.52c-.84-.23-1.08-.73-1.68-1.37-1.39-1.48-4.06-1-5.27.2-.6.59-1,1.59-1.53,2.12-1.18,1.06-3.22-.3-4.41-1.23a7.83,7.83,0,0,1-2.24-2.68c-.63-1.29-1.21-1.7-.92-3.17.21-1.07.65-2.42,0-3.48a3.37,3.37,0,0,0-2.37-1.32c-.67-.15-1.62,0-2.22-.5a2.5,2.5,0,0,1-.67-2.48c.25-.53.91-.77,1.26-1.18a2,2,0,0,0,.49-.79c0-.15,0-.83,0-.87.82-1.07.67-1.8.05-2.19-1.08-.69-3.24.08-3.77,1.52s-3.09,2-4.52,1.1c-2.8-1.83-3.3-7.72-1.71-11.38.72-1.68,3-3.77,4.61-3.71,1.29,0,2.55.78,4,1.14.58.2.63-.22.69-.64.1-.69,1.45-.44,2.44-.32a5.2,5.2,0,0,1,3.89,2.57,13,13,0,0,1,.67,2.57c.36,1.85,2.53,3.25,2.38,1.29-.09-1.22-.43-2.81-.55-4.21-.17-2,1.66-4.17,3-5a22.15,22.15,0,0,0,2.45-1.44,4.18,4.18,0,0,0,1.66-2c.24-1-.28-2,0-3.14a5.48,5.48,0,0,1,.93-2.11,7,7,0,0,1,3-2.32c1.05-.39,2.71.06,3.48-1.19s.9-2.07,2.18-3a10.08,10.08,0,0,1,2.54-1.21c1.44-.48.33,1.75,2,1.82a13.3,13.3,0,0,0,4.92-1.46c1.67-.79,2.62-2.44,2.25-3.09s-2.25,2.15-3.73,1.55a2.38,2.38,0,0,1-.44-.25c-1.3-.93-.63-3.31-.91-3.31s-.18-.4.22-.51,1.35-2.62-.32-2.27c-.28.06-.59.15-.9.25-1.67.53-1.63-.73,0-1.28,2.64-.87,5.55-.64,8.38-.85,1.69-.13,2.11.83.85,2.45s-2,2.71-.83,3.16c1.52.59,3.56.19,3.48.82-.05.41-.09.79.51.49.92-.46,1.54,1.05,2.42.14a1.74,1.74,0,0,0,.18-1.76c-.28-.92-.55-2.55-1.49-2.75s-.71-2.66.18-4.54c.1-.2.19-.4.27-.59.81-1.91-1.31-3.92-2.3-5.19-2.94-3.74-1.58-3.68-2.4-8.31-.3-1.71-1.78-1.7-3.35-.54-.84.62-1.64,1-2.17.87-1.36-.44.38-4.46-.46-5-.46-.33-1.12-.53-1.22-1.42a2.69,2.69,0,0,0-3-2.34c-1.4,0-3.36,2.23-3.6,3.72s-2.07,3.53-1.79,4.66.38,3.92-1.05,5.28c-.86.81-2,1.37-2.72,2.22-1.35,1.5-.66,4.35-1.5,5.18a1.11,1.11,0,0,1-1.56.2,4.21,4.21,0,0,1-1.3-3c.21-2.4,1.42-3.61-.47-4.49a20.76,20.76,0,0,1-6.65-4.76c-.86-1-.49-2-.46-3.33s-1-2,.9-3.53c1.21-1,2.85-1.54,3.85-3.15s-.55-2,.76-3.14,3.51-.21,4.71-.48a2.43,2.43,0,0,0,1.63-.94c.77-1.1-.16-1.32-.23-1.95,0-.2.36-.25.73-.26a3.72,3.72,0,0,0,1.5-.13A2.51,2.51,0,0,0,168,73c.25-.29.28-.55.6-.82a1.72,1.72,0,0,1,.93-.34,4.71,4.71,0,0,0,2-.36,6.77,6.77,0,0,0,2.9-2,5.38,5.38,0,0,0,1-2.15c0-.43-.56-.48-.37-1.12.65-2.1,3-1.69,3.75-1.71,1.2,0,2.64-.09,1.78,2-.38.91-1.14,3.12.37,2.1.86-.57,1.2-.86,1.48-.14a2,2,0,0,1,.09,2,2.64,2.64,0,0,1-1.56,1.41c-.95.42-2.56,3.27-3.95,3.26h-.67c-1.4,0-2.08,3.13-.62,2.78s2.77.78,3.42,2c.92,1.77,2.46,3.78,3.4,4,1.41.25,1.21-2.94,1.95-3.07a3.66,3.66,0,0,1,1.31-.06c.23,0,.78-1.73.8-1.91a2.73,2.73,0,0,0-.2-1.56c-.42-.85-1.28-1.09-1.32-2.35s1.58-2.32,2.2-1.72a2.66,2.66,0,0,1,.44,1.43c.13.9.75,1.51,1.11,1.42a1.89,1.89,0,0,0,.68-.34c.56-.45.69-1.1,1.17-1.59.77-.78,1.5-.37,2.24-1.11a1.16,1.16,0,0,0,.07-1.81c-.87-1-2-1.7-2.81-2.62-.17-.2-.36-.33-.5-.52A3.08,3.08,0,0,1,190,66a8.19,8.19,0,0,0,.48-1.32,2.07,2.07,0,0,0-.45-1.56,6.71,6.71,0,0,0-1-1.39c-.63-.66-2.38-1.11-2.74-2.26s-.46-2.56-1.41-2.67c-.12,0-.55.26-.72.29a1,1,0,0,1-.64-.08c-.37-.18-.52-.58-.82-.82a2.38,2.38,0,0,0-2.51-.29,11.68,11.68,0,0,1-1.21.38,10.3,10.3,0,0,1-2.08,0,9.83,9.83,0,0,0-3.18,1.27,7.78,7.78,0,0,0-1.87,1.43c-.83.93-1.67,2.51-1,2.83s1.94.2,2.76.44,2.58.5,1.45,2.17c-.85,1.26-2.27.55-2.84,2.15-.18.52-.08,1-.56,1.62a6.81,6.81,0,0,1-1.5,1.21,10.31,10.31,0,0,1-1.38.79c-.64.26-1.35-.06-1.07-.83s1-1,1.27-1.62a.77.77,0,0,0-.27-1.1,1.89,1.89,0,0,0-.53-.27,1.74,1.74,0,0,1-.85-1,4.12,4.12,0,0,1-.14-.78c0-.47-.19-.93-.23-1.44a3.8,3.8,0,0,1,1.26-2.57c.28-.18.59-.33,1-.58a16.56,16.56,0,0,0,2.09-1.78c1.4-1.4,2-2.9.8-3s-3.38.89-4.67,2.66a20.25,20.25,0,0,1-2.16,3.08c-.86.84-1.88,1.37-2.68,2.22A18.54,18.54,0,0,0,161,65.64c-.6.81-.74.58-1.36.8-1.37.49-1.74,2.6-3.13,3.3a2.87,2.87,0,0,1-1.34.19,4.34,4.34,0,0,1-2.14-.41c-.18-.1-.43-.22-.18-.63.35-.58,1-.61,1.4-.8a6.23,6.23,0,0,0,3-3.58c.11-.73-.56-.84-.85-1.23a2.91,2.91,0,0,1,.06-2.93q-3.89,3.74-7.42,7.76a.61.61,0,0,1,.47.52c.06.37-.2.75-.59,1.23s-.48.64-.68.94c-.33.53-1.7,2.48-2.26,1.89a2.94,2.94,0,0,1-.37-.53,132.7,132.7,0,0,0-10.28,14.43,135.7,135.7,0,0,0-17.06,42.48,1.13,1.13,0,0,1,1,.53c1,1.29,1.05,4.16,2,5.46,1.6,2.15,3.42,4.81,4,7.53.38,1.78.91,4.42,2.14,5.63,2.42,2.37,5.43,4.45,8.35,4.86s4.86,6,7.9,5.15c.37-.1,1.32,2.54,1.46,2.9a10.49,10.49,0,0,0,2.42,3.36,21.08,21.08,0,0,0,3.43,2.54c2.2,1.43,4.76,3.47,3.42,7-.8,2.11-2.23,4-3.29,6s-2,4.25-1.35,6.68,2.15,4.32,2.83,6.65-.32,4.94.38,7.49c.87,3.19,3,4.18,5.49,5.94a9.84,9.84,0,0,1,4.13,5.48,86.59,86.59,0,0,1,3.61,16.14c.91,6.81,1.29,13.91,3.69,20.36a28.15,28.15,0,0,0,4.81,8.75c1.42,1.66,3.09,2.11,3.64-.44.34-1.56-.59-3.14-.84-4.67s.61-2.6.93-4.07c.27-1.22-.38-3.31.7-4.09s2.18.17,3-1c1-1.5-.61-2.67-.6-4s2.2-.86,3.15-1.85c.6-.63.6-1.63,1.08-2.32s.74-.58,1.22-.94a7,7,0,0,0,1.87-2.77c.74-1.67-.49-4.08.58-5.58.75-1.07,2.75-1.91,4.18-2.25,1.11-.27,1.81-.18,2.74-1.36a8.92,8.92,0,0,0,1.52-4.84C197.85,216.1,198.51,215.09,198.49,214.27ZM148.25,108.62c1.61-.92,4.59-3.15,5.69-2.18a4.93,4.93,0,0,1,1,2.18c.48,1.58,2.46,2.55,3.53,3.42s-.88,1.64-1.34,2.78-1.41,1.4-1.22.75c.12-.4.16-.72-.45-.62-.87.15-.55-.4-.17-1,.51-.83-1.42-2.08-2.39-.36a15,15,0,0,0-.69,1.45c-.76,1.8-2.57,1.35-1.78-.44.1-.23.2-.46.32-.69.89-1.75.81-4.1-.73-4.28C148.31,109.42,146.53,109.62,148.25,108.62Z" style="fill:#fafafa"></path><path d="M315.86,51.79c-75.92-46.9-107.06,5.08-73.21,52.78s105.61,80.35,122.25,59.78S372.3,86.66,315.86,51.79Z" style="fill:#fff;opacity:0.1"></path><path d="M178.07,213c-49.47-70.58-.27-172.81,65.21-190.13h0c-2.59.13-5.2.31-7.82.59A134.63,134.63,0,1,0,355.63,240.75C330.47,260.85,227.5,283.52,178.07,213Z" style="opacity:0.05"></path></g></g><g id="freepik--Boxes--inject-54"><g id="freepik--boxes--inject-54"><g id="freepik--boxes--inject-54"><g id="freepik--Box--inject-54"><g id="freepik--box--inject-54"><polygon points="345.75 314.26 345.75 396.95 236.15 460.23 236.15 377.68 345.75 314.26" style="fill:#F83178"></polygon><polygon points="345.75 314.26 345.75 396.95 236.15 460.23 236.15 377.68 345.75 314.26" style="fill:#fff;opacity:0.35000000000000003"></polygon><path d="M291,363.34c11.43-6.6,20.7-1.25,20.7,12s-9.27,29.26-20.7,35.87-20.71,1.25-20.71-12S279.51,369.94,291,363.34Z" style="fill:#fff"></path><polygon points="286.81 375.29 286.81 384.86 278.52 389.64 278.52 399.2 286.81 394.42 286.81 403.98 295.09 399.2 295.09 389.64 303.37 384.86 303.37 375.29 295.09 380.07 295.09 370.51 286.81 375.29" style="fill:#F83178"></polygon><polygon points="236.15 377.68 236.15 460.23 148.63 409.7 148.63 327.01 236.15 377.68" style="fill:#F83178"></polygon><polygon points="236.15 377.68 236.15 460.23 148.63 409.7 148.63 327.01 236.15 377.68" style="fill:#fff;opacity:0.2"></polygon><polygon points="236.15 377.68 234.42 457.08 170.86 422.53 236.15 460.23 236.15 377.68" style="fill:#fff;opacity:0.05"></polygon></g><polygon points="258.22 263.73 345.75 314.26 236.15 377.68 148.63 327.01 258.22 263.73" style="fill:#F83178"></polygon><polygon points="258.22 263.73 345.75 314.26 236.15 377.68 148.63 327.01 258.22 263.73" style="fill:#fff;opacity:0.5"></polygon><polygon points="345.75 314.26 236.15 374.55 148.63 327.01 236.15 377.68 345.75 314.26" style="fill:#fff;opacity:0.15"></polygon><polygon points="309.43 293.29 199.76 356.61 186.29 348.81 295.94 285.5 309.43 293.29" style="fill:#F83178"></polygon><polygon points="186.28 348.81 186.28 365.94 187.91 365.01 189.6 367.94 191.3 366.94 192.99 369.9 194.69 368.9 196.38 371.82 198.07 370.86 199.77 373.78 199.77 356.61 186.28 348.81" style="fill:#F83178"></polygon><polygon points="186.28 348.81 186.28 365.94 187.91 365.01 189.6 367.94 191.3 366.94 192.99 369.9 194.69 368.9 196.38 371.82 198.07 370.86 199.77 373.78 199.77 356.61 186.28 348.81" style="opacity:0.25"></polygon><path d="M183.93,416.12a4.64,4.64,0,0,1-2-3.74v-5.73l4,2.36.26,0v.37h0v5.13a1.91,1.91,0,0,1-.78,1.73,1.19,1.19,0,0,1-.63.17A1.81,1.81,0,0,1,183.93,416.12Zm.45-6.17-.3,2H182.6v.42a4.05,4.05,0,0,0,1.65,3.18.92.92,0,0,0,.87.1,1.3,1.3,0,0,0,.47-1.18v-4.75Zm-.57-.55,1.18-.21-2.39-1.41v3.53h.93Z" style="fill:#fff"></path><path d="M184.09,420.46a.32.32,0,0,0,.32-.32v-4.3a.32.32,0,1,0-.64,0v4.3A.32.32,0,0,0,184.09,420.46Z" style="fill:#fff"></path><path d="M186,421.54a.31.31,0,0,0,.28-.16.32.32,0,0,0-.12-.44l-3.74-2.16a.32.32,0,0,0-.44.12.32.32,0,0,0,.12.44l3.74,2.16A.32.32,0,0,0,186,421.54Z" style="fill:#fff"></path><path d="M172.63,414.13A.74.74,0,0,0,173,414a.85.85,0,0,0,.38-.77v-.89a.32.32,0,1,0-.64,0v.89c0,.13,0,.2-.06.21s-.1,0-.21-.05a1.89,1.89,0,0,1-.6-1.46v-5.72a.33.33,0,0,0-.65,0V412a2.46,2.46,0,0,0,.92,2A1,1,0,0,0,172.63,414.13Z" style="fill:#fff"></path><path d="M167.47,404.18V404a3.06,3.06,0,0,1,1.32-2.84,3.11,3.11,0,0,1,3.12.27,9.15,9.15,0,0,1,4.12,7.14v.56Zm1.64-2.46a2.38,2.38,0,0,0-1,2.1l7.24,4.18a8.52,8.52,0,0,0-3.76-6,3.32,3.32,0,0,0-1.61-.5A1.69,1.69,0,0,0,169.11,401.72Z" style="fill:#fff"></path><path d="M161.07,407.54a.32.32,0,0,0,.32-.32v-11a.32.32,0,1,0-.64,0v11A.32.32,0,0,0,161.07,407.54Z" style="fill:#fff"></path><path d="M162,398.76a.31.31,0,0,0,.13,0,.32.32,0,0,0,.16-.43l-1.14-2.64-1.28,1.47a.32.32,0,1,0,.49.42l.6-.7.74,1.71A.35.35,0,0,0,162,398.76Z" style="fill:#fff"></path><path d="M158.09,405.84a.32.32,0,0,0,.32-.32v-11a.32.32,0,1,0-.64,0v11A.32.32,0,0,0,158.09,405.84Z" style="fill:#fff"></path><path d="M159,397.06a.28.28,0,0,0,.13,0,.32.32,0,0,0,.17-.42L158.18,394l-1.28,1.48a.33.33,0,0,0,0,.45.34.34,0,0,0,.46,0l.61-.71.74,1.71A.32.32,0,0,0,159,397.06Z" style="fill:#fff"></path></g><polygon id="freepik--shadow--inject-54" points="250 273.38 326.33 317.45 250 361.66 173.67 317.45 250 273.38" style="opacity:0.1"></polygon><g id="freepik--box--inject-54"><g id="freepik--box--inject-54"><polygon points="315.29 247.59 315.29 318.75 250 356.45 250 285.41 315.29 247.59" style="fill:#F83178"></polygon><polygon points="315.29 247.59 315.29 318.75 250 356.45 250 285.41 315.29 247.59" style="fill:#fff;opacity:0.35000000000000003"></polygon><path d="M282.65,278.11c11.43-6.6,20.7-1.25,20.7,11.95s-9.27,29.27-20.7,35.87-20.71,1.25-20.71-12S271.21,284.71,282.65,278.11Z" style="fill:#fff"></path><path d="M271.3,306.05a13.75,13.75,0,0,1,1.41-5.86h0l0,0a11.64,11.64,0,0,1,4.24-5c2.46-1.45,4.57.37,5.39,3.1a.27.27,0,0,0,.52,0c.72-3.74,2.85-8.23,5.39-9.71,1.69-1,3.21-.9,4.26,0h0a5.6,5.6,0,0,1,1.46,4.18c0,6-4.13,11.73-7.6,17.7l-3.75,5.8L279,314.76C275.52,312.88,271.33,312,271.3,306.05Z" style="fill:#F83178"></path><polygon points="250 285.41 250 356.45 184.71 318.75 184.71 247.59 250 285.41" style="fill:#F83178"></polygon><polygon points="250 285.41 250 356.45 184.71 318.75 184.71 247.59 250 285.41" style="fill:#fff;opacity:0.2"></polygon><polygon points="250 285.41 248.51 353.73 193.81 324.01 250 356.45 250 285.41" style="fill:#fff;opacity:0.05"></polygon></g><polygon points="250 209.9 315.29 247.59 250 285.41 184.71 247.59 250 209.9" style="fill:#F83178"></polygon><polygon points="250 209.9 315.29 247.59 250 285.41 184.71 247.59 250 209.9" style="fill:#fff;opacity:0.5"></polygon><polygon points="315.29 247.59 250 282.71 184.71 247.59 250 285.41 315.29 247.59" style="fill:#fff;opacity:0.15"></polygon><polygon points="286.27 230.84 220.92 268.57 209.32 261.86 274.66 224.13 286.27 230.84" style="fill:#F83178"></polygon><polygon points="209.32 261.85 209.32 276.6 210.72 275.8 212.18 278.32 213.64 277.46 215.09 280 216.55 279.15 218.01 281.66 219.47 280.83 220.93 283.35 220.93 268.57 209.32 261.85" style="fill:#F83178"></polygon><polygon points="209.32 261.85 209.32 276.6 210.72 275.8 212.18 278.32 213.64 277.46 215.09 280 216.55 279.15 218.01 281.66 219.47 280.83 220.93 283.35 220.93 268.57 209.32 261.85" style="opacity:0.25"></polygon><path d="M218.67,325.24a4.62,4.62,0,0,1-2-3.74v-5.72l4,2.36.26-.05v.38h0v5.12a1.91,1.91,0,0,1-.78,1.74,1.29,1.29,0,0,1-.63.17A1.76,1.76,0,0,1,218.67,325.24Zm.45-6.16-.3,2h-1.48v.42a4.08,4.08,0,0,0,1.65,3.19.9.9,0,0,0,.87.09,1.3,1.3,0,0,0,.47-1.18v-4.74Zm-.57-.56,1.18-.21-2.39-1.41v3.54h.93Z" style="fill:#fff"></path><path d="M218.83,329.59a.33.33,0,0,0,.33-.32V325a.33.33,0,0,0-.33-.32.32.32,0,0,0-.32.32v4.31A.32.32,0,0,0,218.83,329.59Z" style="fill:#fff"></path><path d="M220.7,330.67a.33.33,0,0,0,.28-.16.32.32,0,0,0-.12-.44l-3.74-2.16a.32.32,0,0,0-.44.12.33.33,0,0,0,.12.44l3.74,2.15A.33.33,0,0,0,220.7,330.67Z" style="fill:#fff"></path><path d="M207.38,323.26a.73.73,0,0,0,.35-.09.87.87,0,0,0,.38-.78v-.88a.32.32,0,1,0-.64,0v.88a.33.33,0,0,1-.06.22.27.27,0,0,1-.21-.06,1.84,1.84,0,0,1-.6-1.45v-5.73a.33.33,0,0,0-.65,0v5.73a2.46,2.46,0,0,0,.92,2A1,1,0,0,0,207.38,323.26Z" style="fill:#fff"></path><path d="M202.21,313.31v-.19a2.72,2.72,0,0,1,4.44-2.56,9.12,9.12,0,0,1,4.12,7.14v.55Zm1.64-2.47a2.38,2.38,0,0,0-1,2.1l7.24,4.18a8.47,8.47,0,0,0-3.76-6,3.32,3.32,0,0,0-1.61-.5A1.71,1.71,0,0,0,203.85,310.84Z" style="fill:#fff"></path><path d="M195.81,316.66a.32.32,0,0,0,.32-.32v-11a.32.32,0,0,0-.64,0v11A.32.32,0,0,0,195.81,316.66Z" style="fill:#fff"></path><path d="M196.75,307.88a.31.31,0,0,0,.13,0,.32.32,0,0,0,.17-.42l-1.15-2.65-1.28,1.48a.32.32,0,0,0,0,.45.33.33,0,0,0,.46,0l.61-.7.74,1.71A.31.31,0,0,0,196.75,307.88Z" style="fill:#fff"></path><path d="M192.83,315a.32.32,0,0,0,.32-.32v-11a.32.32,0,1,0-.64,0v11A.32.32,0,0,0,192.83,315Z" style="fill:#fff"></path><path d="M193.77,306.18a.28.28,0,0,0,.13,0,.32.32,0,0,0,.17-.42l-1.15-2.65-1.28,1.48a.32.32,0,0,0,0,.45.31.31,0,0,0,.45,0l.61-.7.74,1.71A.31.31,0,0,0,193.77,306.18Z" style="fill:#fff"></path></g></g></g></g><g id="freepik--character-3--inject-54"><g id="freepik--Chartacter--inject-54"><g id="freepik--Bottom--inject-54"><path d="M458.13,420.06c-.78-11.29-1.18-16.56-2.25-36.72h0c-.1-5.17-.28-10.71-.63-15.62-1.17-16.55-3.3-20.49-4.72-26.16s-2.57-16.29-4.74-51.87a182.63,182.63,0,0,0-6.57-40.2h-51c-5.24,22.31-6.73,70.61-6.58,93.6.08,11.72.21,72.27-.08,77.11a16.33,16.33,0,0,1-4.9,10.5c-4.2,4.51-7.22,6.33-12.48,10.26.76,2,11.79,1.94,14.93.41a116.12,116.12,0,0,0,13.16-7.74c4.33-3.2,5.34-5.13,5.41-10a15,15,0,0,0,0-1.59c.08-2.85,8.28-45.28,10.07-54.86,1.39-7.44-.14-21.86-.14-21.86l5.4-35.45s6.09,23.53,9.35,37.86c2.39,10.54,8.31,27.17,12.18,44h0c4.53,17.12,4.89,18.62,7.56,30.89,1.34,6.18,4.63,27,6.13,31.24,4.84,13.8,15.79,6.95,16.41-.68C465.06,448.12,458.29,422.49,458.13,420.06Z" style="fill:#ffa8a7"></path><path d="M352.56,446.67c-.29,0-.75,3.14.79,4.5,1.77,1.56,7,4.15,14,3.33s10.75-2.93,13.55-5.23,6.74-5.54,9.89-6.2c2.93-.61,7.69-2.21,8.64-3.1s.86-4.9.86-4.9Z" style="fill:#263238"></path><path d="M397.78,421a2.14,2.14,0,0,1,1.11,1.38c.2,1.1.19,2.52.63,4.34a32.63,32.63,0,0,1,.58,9.76c-.4,2.05-6.76,3.73-9.82,4.86a38.82,38.82,0,0,0-9.92,6.11c-3.29,2.66-10.19,5.29-14.72,5.31-6.91,0-11.37-1.9-12.73-4.4-1.68-3.09-.32-4.86,7.67-8.45,1.51-.69,6.83-3.76,8.64-4.87a40.81,40.81,0,0,0,5.45-4,28.83,28.83,0,0,0,2.45-2.37,11.06,11.06,0,0,0,2-2.55c.09-.21.16-.45.24-.67a11.88,11.88,0,0,0,.54-1.85c.13-.66.22-1.63.86-2a5.25,5.25,0,0,1,2.84-.31,20.94,20.94,0,0,1,3.06.47c1.17.27,4.1.08,4.78,1.19a5.73,5.73,0,0,1,.63,2.88c0,.47,0,.94,0,1.4,0,.2-.09.55.19.47s.56-.76.67-1c.22-.51.37-1.07.62-1.58a4.77,4.77,0,0,1,1-1.67c1.34-1.09,2.61-.86,3-1.24C397.59,422.2,397.74,421.36,397.78,421Z" style="fill:#37474f"></path><path d="M359.29,440.47c10,.79,13.09,7,13.47,10.84a23.75,23.75,0,0,1-7.12,1.42c-6.91,0-11.66-1.9-13-4.4C351.05,445.41,352.17,443.09,359.29,440.47Z" style="fill:#fafafa"></path><path d="M374.3,440.73a.49.49,0,0,0,.31-.11.48.48,0,0,0,.07-.68,11.75,11.75,0,0,0-9-3.67.49.49,0,0,0-.44.53.48.48,0,0,0,.53.44,10.91,10.91,0,0,1,8.16,3.31A.46.46,0,0,0,374.3,440.73Z" style="fill:#f0f0f0"></path><path d="M378.63,438.27a.51.51,0,0,0,.31-.11.49.49,0,0,0,.08-.69,11.73,11.73,0,0,0-9-3.66.49.49,0,0,0,.09,1,10.91,10.91,0,0,1,8.16,3.3A.5.5,0,0,0,378.63,438.27Z" style="fill:#f0f0f0"></path><path d="M382.66,435.44a.45.45,0,0,0,.31-.11.48.48,0,0,0,.07-.68,11.73,11.73,0,0,0-9-3.67.5.5,0,0,0-.44.53.49.49,0,0,0,.54.44,10.91,10.91,0,0,1,8.15,3.31A.53.53,0,0,0,382.66,435.44Z" style="fill:#f0f0f0"></path><path d="M386.6,432.61a.5.5,0,0,0,.31-.1.49.49,0,0,0,.08-.69c-1.89-2.44-6.2-4.08-9.84-3.72a.49.49,0,0,0,.09,1c3.28-.32,7.3,1.19,9,3.35A.47.47,0,0,0,386.6,432.61Z" style="fill:#f0f0f0"></path><path d="M446.74,455.47c.79,4.65,1.86,7.68,3.83,10.24s5.2,3.08,8.29,1.92,6.91-3.75,7.38-7.9.68-7-.52-11.23Z" style="fill:#263238"></path><path d="M458.13,420.06c1.32,0,1.66,6.2,3.11,12.42,1.56,6.66,2.83,9.23,4.17,14.69,1.52,6.23.79,9.17-1,13.24s-9.22,8.69-13.7,3.65c-3.64-4.12-4.32-9.06-4.74-15.41a92.06,92.06,0,0,0-2.62-15.74c-1.12-5.05-2.32-9.62-1.24-10.27a43.14,43.14,0,0,0,1.34,5c.17.34.77,1.16.83-.18,0-.4-.21-1.29-.22-1.69a1.69,1.69,0,0,1,1-1.64,12.66,12.66,0,0,1,5.44-1.84c2.56-.3,4.76-.63,6.27-.06.9.35,1,1.16,1.15,1.95.22.94.3,1.53.51,1.31C458.88,425.08,458.07,420.75,458.13,420.06Z" style="fill:#37474f"></path><path d="M466.17,450.79a15.75,15.75,0,0,1-1.38,9.88c-1.79,4.07-9.85,8.78-14.32,3.73-2.23-2.51-3.1-5.68-3.73-8.93C448.59,451,462.12,447.6,466.17,450.79Z" style="fill:#fafafa"></path><path d="M448.83,448.27a.44.44,0,0,0,.16-.06c.05,0,5.83-3.21,11.87-2.5a.49.49,0,0,0,.12-1c-6.4-.75-12.29,2.51-12.51,2.64a.48.48,0,0,0-.15.67A.48.48,0,0,0,448.83,448.27Z" style="fill:#f0f0f0"></path><path d="M460.05,441a.48.48,0,0,0,.37-.37.49.49,0,0,0-.37-.58c-6.09-1.34-12.27,2.36-12.5,2.52a.49.49,0,0,0-.13.68.5.5,0,0,0,.68.13s6.07-3.63,11.74-2.38A.38.38,0,0,0,460.05,441Z" style="fill:#f0f0f0"></path><path d="M459.35,436.61a.5.5,0,0,0,.37-.36.49.49,0,0,0-.36-.59c-6.71-1.6-12.53,2.35-12.74,2.51a.49.49,0,1,0,.59.77c.05,0,5.68-3.82,11.92-2.33Z" style="fill:#f0f0f0"></path><path d="M458.54,432.27a.47.47,0,0,0,.37-.36.48.48,0,0,0-.35-.59c-6.3-1.59-12.58,2.48-12.81,2.66a.48.48,0,0,0-.11.68.47.47,0,0,0,.68.1c.06,0,6.15-4,12-2.49Z" style="fill:#ebebeb"></path><path d="M443.28,249.49c1.91,13.91,2.51,17.33,4.59,48.32,2,30,2.18,34.45,2.48,38.07.68,8.3,4.36,11.17,5.43,30.76,1,17.95,1.57,40.1,1.57,40.1s-2.41,3.32-9.25,3.93c-6.31.57-9.47-1.8-9.47-1.8s-11.69-41.85-15-52.39c-4.43-14.3-10.65-39.4-10.65-39.4L408.9,345.8s1.33,13.77-1.34,26.76c-3.31,16.11-6.69,33.62-6.69,33.62a21.48,21.48,0,0,1-9.5,1.18c-7.39-.74-9.86-2.46-9.86-2.46s-2.07-48.67-2.07-66.45.22-61.29,1.26-89Z" style="fill:#455a64"></path><path d="M413,317.08,407.9,286s-10.29-2.72-16.9-9.63c.49,5.15,9.64,11.76,13.93,12.78l5.72,27.56L408.9,345.8Z" style="fill:#37474f"></path><path d="M425,254.31a41.71,41.71,0,0,1,3.86,8.16,79.44,79.44,0,0,1,2.57,8.65c.68,2.93,1.24,5.88,1.63,8.86a57.59,57.59,0,0,1,.59,9c-.71-2.93-1.38-5.83-2-8.74s-1.32-5.8-2-8.69-1.39-5.76-2.13-8.64S425.87,257.18,425,254.31Z" style="fill:#37474f"></path><path d="M428.9,255.4A32,32,0,0,1,433,260a43.06,43.06,0,0,1,3.3,5.13,37.87,37.87,0,0,1,2.51,5.59,23.88,23.88,0,0,1,1.38,6l-2.73-5.39c-.93-1.76-1.85-3.52-2.82-5.26s-1.92-3.48-2.88-5.24S429.79,257.25,428.9,255.4Z" style="fill:#37474f"></path><path d="M422.37,291.36c1.3,9.33,2.46,18.66,3.63,28s3.45,19.61,5.17,28.82,12.59,45.28,14,54.58c-2.15-9.17-14.08-45-15.89-54.24s-3.85-19.63-4.76-29S422.94,300.76,422.37,291.36Z" style="fill:#37474f"></path><path d="M388.9,291.36l-1.54,24.53c-.22,4.08-.49,8.16-.67,12.25s-.43,8.17-.36,12.21.34,43.2-.22,51.4c-1-9.13-1.4-43.13-1.68-51.37,0-8.29.73-16.43,1.46-24.61S387.64,299.47,388.9,291.36Z" style="fill:#37474f"></path><path d="M401.64,402.24l-1.39,8.52s-3.42,2.18-10.58,1.44-8.2-3.06-8.2-3.06v-8s1.72,1.67,8.26,2.41A28.22,28.22,0,0,0,401.64,402.24Z" style="fill:#37474f"></path><path d="M457.2,400.8l.64,8.61s-2.81,2.91-9.95,3.86-8.68-1.06-8.68-1.06l-1.87-7.79s2.06,1.22,8.59.41A28.24,28.24,0,0,0,457.2,400.8Z" style="fill:#37474f"></path></g><g id="freepik--Top--inject-54"><path id="freepik--Chest--inject-54" d="M425.58,172.28c3.93.81,8.91,1.83,13.91,3.21s5.74,1.68,7.37,2.25c0,0,2.66,11.46,1.1,38.89-.23,4.07-3.18,15-3.68,23.41a134,134,0,0,0,.71,26.29s-10,9.63-37.76,7.54c-21.78-1.64-27.43-11.15-27.43-11.15s.24-34.82.81-50.88c.74-21.1,7.13-33.28,11.83-37l14.3-2.39Z" style="fill:#455a64"></path><g id="freepik--chest--inject-54"><path d="M325.49,224.15a20.08,20.08,0,0,0,2.44-4.21,14.73,14.73,0,0,0,.32-10.55L326,209.2c-3.42-.4-6-4.36-10-6.94a60.82,60.82,0,0,1-7.82-5.66c-2.5-2.1-4-1-3.85,1.29s3.51,5.4,3.6,6-5.35,0-9.26-1.4-5.95-4.87-7.91-5.24a2.58,2.58,0,0,0-2.76,1l2.33,5.08s-2,.2-.1,5,4,8.24,9.18,10.73,6.82,2.36,10.17,2.75,6.66.06,11.18,1.19C321.59,223.26,323.28,223.65,325.49,224.15Z" style="fill:#ffa8a7"></path><path d="M392.45,174.87c-5.66,1-9.38,3-15.88,10.09-2.7,3-23.24,26.54-23.24,26.54L326.83,208a24.16,24.16,0,0,1,1.37,4.58c.52,5.45-1.43,9-3.84,12.4,9.6,2.13,27,7,31.33,7.63,6,.82,9-2.4,14.87-7.78S394.24,204,394.24,204Z" style="fill:#37474f"></path></g><g id="freepik--Head--inject-54"><path d="M431.26,127.2s3.36.26,5.56,4.49c1.1,2.13,1.9,6-1.13,17.11A44.51,44.51,0,0,1,430.35,161a5.49,5.49,0,0,1-3.18,2.54l.22-8.53.32-5.94s-4.79-4.35-5.21-8.62c-.53-5.49,1.62-8.6,1.62-8.6Z" style="fill:#37474f"></path><path d="M432.42,127.49c-.83-4.79-6.91-10.51-18.64-11.14-9.61-.51-15,3-18.57,8.39-3.78,5.67-1.15,12.86-1.15,12.86l30.2-2Z" style="fill:#37474f"></path><path d="M435.18,157.55c-4.42,2.15-6.43-1.35-6.43-1.35l-.67,17.59c-8.48,11.35-31.11,7.25-21.83-1.26l0-4a27.29,27.29,0,0,1-3.83-.37c-3.91-.62-6.36-3.73-7.53-8-1.72-6.27-2.4-16.3,0-27,.46-2.06,1.35-4.31,3.24-5.25,4.7-2.32,9,1,15.58,3.58,2.71,1.06,9.28,1.52,11,.71-2.28,2.52-2.26,10.47,1.1,13.71a7.52,7.52,0,0,0,1.68,2.19c1.43,1.24,2.61-2,3.81-3.23A4.93,4.93,0,0,1,439,146.7,8,8,0,0,1,435.18,157.55Z" style="fill:#ffa8a7"></path><path d="M406.25,172.53s-6.51,5-10.17,19.08-4.63,54.52-4.75,67.83,0,18.27,0,18.27a44,44,0,0,1-13.44-3.28c0-15.61-1.06-61.26,3.38-78.42s11.17-21.13,11.17-21.13Z" style="fill:#F83178"></path><path d="M377.82,261.68a31.52,31.52,0,0,0,13.46,4.22c0-1.37,0-2.88,0-4.52a32.45,32.45,0,0,1-13.52-4.58C377.8,258.48,377.81,260.11,377.82,261.68Zm0-18.53c0,1.82,0,3.62,0,5.38a32.83,32.83,0,0,0,13.63,4.77c0-1.47.06-3.07.1-4.76A52.31,52.31,0,0,1,377.82,243.15Z" style="fill:#fafafa"></path><path d="M428.16,171.91l-.08,1.88s-5.9,22.15-7.34,40.83c-1.23,16-1.45,54.22-1.49,67.39,9.21,1.8,22.05,0,27.82-4.3-1.09-17.58-2.17-26.67-1.21-39.92,1-13.94,6.79-39.88,1.38-60.56C442.35,175.88,434.51,173.52,428.16,171.91Z" style="fill:#F83178"></path><path d="M445.94,260.56c-4.86,3.95-16,7.11-26.61,6.79,0,1.74,0,3.4,0,5,0,0,17.52.73,27-6.89C446.14,263.74,446,262.12,445.94,260.56Z" style="fill:#fafafa"></path><path d="M419.5,252.65c0,1.67-.05,3.33-.07,5,12.83.62,21.83-2.78,26.13-4.91-.05-1.83-.08-3.63-.07-5.46A48.2,48.2,0,0,1,419.5,252.65Z" style="fill:#fafafa"></path><path d="M406.27,168.52c5.13,0,9.69-.66,12.71-1.94s5.72-5.37,6.6-9.44c0,3.27-1.44,9.07-6,11.48s-9.94,2.54-13.29,2.61Z" style="fill:#f28f8f"></path><path d="M423.84,142.69c1.2,2.38-.16,9.91-2.42,10.85s-4.61-.59-9.72-.88a36.59,36.59,0,0,0-11.42.94c-2.31.63-6.47,1.68-6.65-.64.14,5.74,1.28,12.26,5.41,14.35s14.83,2.59,20.35-.29,6.54-6.17,7.55-10.66a82.69,82.69,0,0,1,2.83-9.29Z" style="fill:#37474f"></path><path d="M412.19,137.45l4.34,1.82a2.48,2.48,0,0,0-1.3-3.16A2.3,2.3,0,0,0,412.19,137.45Z" style="fill:#37474f"></path><path d="M396,138l4.41-1.75a2.28,2.28,0,0,0-3-1.38A2.49,2.49,0,0,0,396,138Z" style="fill:#37474f"></path><path d="M414.71,142.43a1.92,1.92,0,1,1-1.85-2A1.92,1.92,0,0,1,414.71,142.43Z" style="fill:#263238"></path><path d="M401,141.41a1.92,1.92,0,1,1-1.85-2A1.92,1.92,0,0,1,401,141.41Z" style="fill:#263238"></path><path d="M406.85,139.29l-1.58,12.21-6.45-2.39A28.69,28.69,0,0,1,406.85,139.29Z" style="fill:#f28f8f"></path><path d="M411,154.59l-5,1.65a2.58,2.58,0,0,0,3.28,1.76A2.75,2.75,0,0,0,411,154.59Z" style="fill:#b16668"></path><path d="M410.46,155.49a2.69,2.69,0,0,1,.63-.06,2.6,2.6,0,0,1-2.65,2.69A2.39,2.39,0,0,1,410.46,155.49Z" style="fill:#f28f8f"></path></g><path d="M398.26,265.59a9,9,0,0,0-3.7-1.82c-.87-.24-1.75-.42-2.64-.6a19.78,19.78,0,0,0-6.92-.61,1.85,1.85,0,0,0-1.29.6,1.36,1.36,0,0,0-.06,1.34,3.35,3.35,0,0,0,2.32,1.84l6.46,2a6.66,6.66,0,0,1,2.1.91,2.56,2.56,0,0,1,.91,1.22l4.25-2.45A4.65,4.65,0,0,0,398.26,265.59Z" style="opacity:0.2"></path><g id="freepik--box--inject-54"><g id="freepik--box--inject-54"><polygon points="404.67 224.14 404.67 265.13 367.06 286.84 367.06 245.92 404.67 224.14" style="fill:#F83178"></polygon><polygon points="404.67 224.14 404.67 265.13 367.06 286.84 367.06 245.92 404.67 224.14" style="fill:#fff;opacity:0.35000000000000003"></polygon><path d="M385.86,241.72c6.59-3.81,11.93-.72,11.93,6.88s-5.34,16.86-11.93,20.66-11.93.72-11.93-6.88S379.27,245.52,385.86,241.72Z" style="fill:#fff"></path><polygon points="367.06 245.92 367.06 286.84 329.44 265.13 329.44 224.14 367.06 245.92" style="fill:#F83178"></polygon><polygon points="367.06 245.92 367.06 286.84 329.44 265.13 329.44 224.14 367.06 245.92" style="fill:#fff;opacity:0.2"></polygon><polygon points="367.06 245.92 366.2 285.28 334.69 268.15 367.06 286.84 367.06 245.92" style="fill:#fff;opacity:0.05"></polygon></g><polygon points="367.06 202.42 404.67 224.14 367.06 245.92 329.44 224.14 367.06 202.42" style="fill:#F83178"></polygon><polygon points="367.06 202.42 404.67 224.14 367.06 245.92 329.44 224.14 367.06 202.42" style="fill:#fff;opacity:0.5"></polygon><polygon points="404.67 224.14 367.06 244.37 329.44 224.14 367.06 245.92 404.67 224.14" style="fill:#fff;opacity:0.15"></polygon><polygon points="387.95 214.49 350.3 236.22 343.62 232.36 381.26 210.62 387.95 214.49" style="fill:#F83178"></polygon><polygon points="343.62 232.35 343.62 240.85 344.43 240.39 345.27 241.84 346.11 241.34 346.95 242.81 347.79 242.31 348.63 243.76 349.47 243.28 350.31 244.73 350.31 236.22 343.62 232.35" style="fill:#F83178"></polygon><polygon points="343.62 232.35 343.62 240.85 344.43 240.39 345.27 241.84 346.11 241.34 346.95 242.81 347.79 242.31 348.63 243.76 349.47 243.28 350.31 244.73 350.31 236.22 343.62 232.35" style="opacity:0.25"></polygon><path d="M349,268.87a2.68,2.68,0,0,1-1.14-2.16v-3.29l2.31,1.35.15,0V265h0v2.95a1.09,1.09,0,0,1-.45,1,.65.65,0,0,1-.36.1A1,1,0,0,1,349,268.87Zm.26-3.55-.17,1.15h-.86v.24a2.36,2.36,0,0,0,.95,1.84.54.54,0,0,0,.51.05.75.75,0,0,0,.26-.68v-2.73Zm-.33-.32.68-.13-1.38-.81v2h.54Z" style="fill:#fff"></path><path d="M349.1,271.37a.19.19,0,0,0,.19-.18v-2.48a.19.19,0,0,0-.19-.19.18.18,0,0,0-.18.19v2.48A.18.18,0,0,0,349.1,271.37Z" style="fill:#fff"></path><path d="M350.18,272a.18.18,0,0,0,.09-.34l-2.15-1.25a.2.2,0,0,0-.26.07.18.18,0,0,0,.07.25l2.16,1.25A.15.15,0,0,0,350.18,272Z" style="fill:#fff"></path><path d="M342.5,267.72a.35.35,0,0,0,.2-.05.47.47,0,0,0,.23-.44v-.51a.2.2,0,0,0-.19-.19.19.19,0,0,0-.18.19v.51a.17.17,0,0,1,0,.12s-.06,0-.12,0a1.12,1.12,0,0,1-.35-.84v-3.3a.18.18,0,0,0-.18-.18.19.19,0,0,0-.19.18v3.3a1.43,1.43,0,0,0,.53,1.16A.55.55,0,0,0,342.5,267.72Z" style="fill:#fff"></path><path d="M339.52,262v-.1a1.57,1.57,0,0,1,2.56-1.48,5.25,5.25,0,0,1,2.38,4.11v.32Zm1-1.42a1.37,1.37,0,0,0-.57,1.21l4.17,2.41a4.92,4.92,0,0,0-2.17-3.46,1.92,1.92,0,0,0-.93-.29A1.06,1.06,0,0,0,340.47,260.57Z" style="fill:#fff"></path><path d="M335.84,263.93a.19.19,0,0,0,.18-.19v-6.31a.18.18,0,0,0-.18-.19.19.19,0,0,0-.19.19v6.31A.2.2,0,0,0,335.84,263.93Z" style="fill:#fff"></path><path d="M336.38,258.87l.07,0a.18.18,0,0,0,.1-.24l-.66-1.53-.73.85a.19.19,0,0,0,0,.26.19.19,0,0,0,.27,0l.35-.4.42,1A.19.19,0,0,0,336.38,258.87Z" style="fill:#fff"></path><path d="M334.12,263a.19.19,0,0,0,.19-.19v-6.31a.19.19,0,1,0-.37,0v6.31A.19.19,0,0,0,334.12,263Z" style="fill:#fff"></path><path d="M334.67,257.89l.07,0a.19.19,0,0,0,.1-.24l-.66-1.53-.74.85a.18.18,0,0,0,0,.26.19.19,0,0,0,.26,0l.35-.41.43,1A.18.18,0,0,0,334.67,257.89Z" style="fill:#fff"></path></g><polygon points="383.44 248.48 383.44 254.09 378.58 256.89 378.58 262.5 383.44 259.69 383.44 265.3 388.29 262.5 388.29 256.89 393.14 254.09 393.15 248.48 388.29 251.28 388.29 245.68 383.44 248.48" style="fill:#F83178"></polygon><path d="M447.24,177.23c-5.1,5.21-7.46,23.49-7.46,23.49l-3.86,29.9s-28.3,21.46-30.81,23a58.81,58.81,0,0,1-7.71,4.07c-1.85.76-4.39,1.57-6.93,2.35-2.09.64-4.07,1.29-6.25,2.09-1.77.65-2.86,1.49-1.66,3.05.6.78,2.57.85,3.66.82s2,0,2.88-.09c1.1,0,2.08-.05,2.9,0a7,7,0,0,1,2.21.32c1.14.77-1.71,3.88-2.07,4.25l-9.26,7.27c2.84.37,11.89,1.48,15.17.38,1.32-.45,6.31-4.52,9.24-7,3.21-2.73,5.92-5.3,9.61-7.47s13.52-7.8,23.87-13.8c10.64-6.17,12-7,13.7-16.17,2.47-13.16,4.17-21.76,4.87-33.45C460,189.81,459.6,181.57,447.24,177.23Z" style="fill:#ffa8a7"></path><path d="M410.87,248.86c3,0,8.42,7,7.12,14.74,0,0,18.39-9.55,25.95-13.68s8.8-5.66,10.4-11.79,5.4-29.83,6.15-37.25-.4-15.43-4.38-19a24,24,0,0,0-8.87-4.68c-2.42,2.21-6.95,7.48-8.82,23.49l-3.23,29Z" style="fill:#37474f"></path><path d="M437.74,205.78c7.66,5.33,19.11,5.1,21.78,3.19l-2.07,14.26a27.19,27.19,0,0,1-21.22-2.81Z" style="fill:#fff"></path><polygon points="451.74 212.59 451.44 215.87 448.63 215.83 448.33 219.12 451.14 219.16 450.83 222.44 453.64 222.48 453.95 219.2 456.75 219.24 457.06 215.96 454.25 215.91 454.55 212.63 451.74 212.59" style="fill:#F83178"></polygon></g></g></g><g id="freepik--characters-1-and-2--inject-54"><g id="freepik--Character--inject-54"><g id="freepik--bottom--inject-54"><path d="M102.56,426.74C102.3,424.05,100,407,100,407l20.49.46s-1.32,16.6,0,20.64c.89,2.68,3.68,5.76,4.75,7s-11.58,3-16.38,2.22-6.18-2.72-6.55-5.54A14,14,0,0,1,102.56,426.74Z" style="fill:#ffa8a7"></path><path d="M148.39,451.47c.3,0,.83,3-.76,4.3-1.83,1.52-7.26,4.09-14.54,3.42s-11.27-2.6-14.24-4.74-7.12-5.16-10.42-5.73c-3.06-.53-6.41-1.7-7.41-2.54s-1-4.66-1-4.66Z" style="fill:#263238"></path><path d="M102.56,426.74a1.15,1.15,0,0,0-1.08.92c-.19,1.06-.35,4.13-.79,5.87-.6,2.42-.92,7.36-.46,9.3s5.46,3.18,8.67,4.2a41.22,41.22,0,0,1,10.45,5.65c3.48,2.48,10.73,4.95,15.46,4.79,5.6-.18,11.86-2,13.24-4.41,1.71-3,2.92-6.41-5.48-9.69-1.58-.63-7.18-3.46-9.09-4.49-5.17-2.78-8.82-5.37-11.3-10.47a2.9,2.9,0,0,0-1.24-1.55,3,3,0,0,0-1.62-.09c-1.38.21-6.87,1.05-8.12,1.63s-2.67,1.12-2.61,2.42a4.1,4.1,0,0,0,.35,1.32c.11.26.19.61-.06.78s-.56,0-.78-.18a20,20,0,0,1-2.3-2.39,7.72,7.72,0,0,0-1.35-1.19,13.32,13.32,0,0,1-1.44-.8C102.49,427.92,102.6,427.35,102.56,426.74Z" style="fill:#455a64"></path><path d="M119.35,452.68c-1.48-1.05-3-2.06-4.61-3h0s9.91,5.15,13.79,2.58c2.49-1.65,1.23-3.54,1.16-4.15s8.78-5.19,11.24-5.52h0c.69.33,1.28.59,1.64.74,8.4,3.28,7.19,6.72,5.48,9.69-1.38,2.41-5.9,4.38-13.14,4.57C130.18,457.76,122.83,455.16,119.35,452.68Z" style="fill:#37474f"></path><path d="M129,446.38c5.21,1.74,3,2.68,1.59,2.91s-10.25-4.17-15.65-7.85c-5.64-3.84-9.24-8.1-11.33-9.51-.78-.53-1.62-1.18-2.37-1.79.11-1,.19-2,.28-2.48a1.15,1.15,0,0,1,1.08-.92c0,.61-.07,1.18.45,1.62a13.32,13.32,0,0,0,1.44.8,7.72,7.72,0,0,1,1.35,1.19,20,20,0,0,0,2.3,2.39C112.75,437.83,123.74,444.63,129,446.38Z" style="fill:#37474f"></path><path d="M130.16,448.61a.55.55,0,0,1-.32-.1.43.43,0,0,1-.09-.65c1.41-1.67,8.22-5.71,12-5.43a.47.47,0,0,1,.47.5.48.48,0,0,1-.55.42c-3.56-.25-10,3.75-11.13,5.07A.56.56,0,0,1,130.16,448.61Z" style="fill:#263238"></path><path d="M125.59,446.2a.55.55,0,0,1-.32-.1.44.44,0,0,1-.09-.65c1.41-1.66,8.21-5.7,12-5.43a.48.48,0,0,1,.47.5.49.49,0,0,1-.55.43c-3.56-.25-10,3.75-11.13,5.07A.55.55,0,0,1,125.59,446.2Z" style="fill:#263238"></path><path d="M121,443.93a.56.56,0,0,1-.33-.1.44.44,0,0,1-.09-.65c1.42-1.67,8.22-5.71,12-5.43a.47.47,0,0,1,.46.5.49.49,0,0,1-.55.43c-3.56-.25-10,3.75-11.13,5.07A.57.57,0,0,1,121,443.93Z" style="fill:#263238"></path><path d="M116.78,441.31a.58.58,0,0,1-.33-.1.43.43,0,0,1-.08-.65c1.41-1.67,8.23-5.71,12-5.43a.48.48,0,0,1,.47.5.52.52,0,0,1-.56.43c-3.55-.25-10,3.74-11.13,5.06A.54.54,0,0,1,116.78,441.31Z" style="fill:#263238"></path><path d="M112.62,438.68a.62.62,0,0,1-.32-.09.43.43,0,0,1-.1-.65c1.94-2.36,9.09-5.78,12.89-5.5a.48.48,0,0,1,.47.5.5.5,0,0,1-.55.43c-3.43-.25-10.27,3-12,5.12A.49.49,0,0,1,112.62,438.68Z" style="fill:#263238"></path><path d="M45.14,423.3s.44-4.73,1.18-14.95l17.44,3.36-4.47,14.74s-.24,5-2,7.42-12,1.32-13.24-2.08S45.14,423.3,45.14,423.3Z" style="fill:#ffa8a7"></path><path d="M57.31,456.79c-.75,4.27-1.89,7-4.11,9.26s-6,2.5-9.72,1.2-8.33-4-9-7.86-.24-6.41,1-10.29Z" style="fill:#263238"></path><path d="M45.14,423.3c-1.56-.13-2.35,5.61-3.82,11.29-1.57,6.09-4.21,8.31-5.57,13.29-1.55,5.69-1.41,8.36.87,12.27s11.26,8.73,16.34,4.34c4.15-3.57,4.75-8.11,5-14a114.56,114.56,0,0,1,1.11-14.87c.73-4.33,1.53-8.5.23-9.19-.17.63-.35,1.43-.52,2s-.52,2.82-1.39,2.71a7,7,0,0,1,.14-1.65,1.68,1.68,0,0,0-.29-1.47,3.55,3.55,0,0,0-1.66-.85c-1.51-.46-3-.89-4.57-1.23-.76-.16-1.54-.3-2.32-.41a7.83,7.83,0,0,0-2-.07,1.24,1.24,0,0,0-.89.47,1.35,1.35,0,0,0-.15.65,3.89,3.89,0,0,1-.31,1.17c-.08.17-.25.36-.47.28a.36.36,0,0,1-.22-.39C44.71,427,45.07,423.67,45.14,423.3Z" style="fill:#455a64"></path><path d="M36.26,446.28c-.23.82-1.69,6.25.16,7.54,2,1.4,3.6-2.81,3.6-2.81s5.07-.46,12,3c-.45.85.37,4,2.41,3.66s3.43-6.62,3.45-6.7c-.25,5.63-.93,10-5,13.48-5.08,4.39-14.05-.43-16.34-4.34s-2.42-6.58-.87-12.27C35.9,447.31,36.08,446.78,36.26,446.28Z" style="fill:#37474f"></path><path d="M40.55,451.46c-.24,2.11-2.85,1-2.68-2s3-9.76,3.45-14.88c1.47-5.68,2.26-11.42,3.82-11.29,0,.07-.35,3-.35,3s-.11.92-.15,1.37c-.46,4.3-2,12.49-2.91,16.36A51.11,51.11,0,0,0,40.55,451.46Z" style="fill:#37474f"></path><path d="M51.23,453.87a52.54,52.54,0,0,0,2.21-7.18c.92-3.82,3.07-11.79,4.54-15.88a8.76,8.76,0,0,0,.78-2.33c.16-.57.33-1.3.48-1.9,0-.05,0-.09,0-.13.93.51.77,2.85.32,5.75-.36,1.65-.9,3.69-1.64,6.15-1.83,4.82-2.29,12.15-3.45,14.92S50.52,455.87,51.23,453.87Z" style="fill:#37474f"></path><path d="M52.2,454.25l-.2-.08a23.83,23.83,0,0,0-11.88-2.71.64.64,0,0,1-.67-.42c-.06-.25.15-.47.46-.49a25,25,0,0,1,12.7,2.9.42.42,0,0,1,.18.64A.61.61,0,0,1,52.2,454.25Z" style="fill:#263238"></path><path d="M54,449.86l-.19-.07a29.49,29.49,0,0,0-13.29-3,.63.63,0,0,1-.66-.43c-.05-.26.17-.47.48-.48a30.62,30.62,0,0,1,14.05,3.2.43.43,0,0,1,.21.64A.61.61,0,0,1,54,449.86Z" style="fill:#263238"></path><path d="M41.27,442.47a.61.61,0,0,1-.46-.37c-.08-.25.11-.48.42-.52,7.14-.82,13.75,2.94,14,3.1a.42.42,0,0,1,.18.64.65.65,0,0,1-.79.07c-.07,0-6.49-3.67-13.14-2.91A.65.65,0,0,1,41.27,442.47Z" style="fill:#263238"></path><path d="M42.07,438.43a.65.65,0,0,1-.46-.37c-.08-.25.1-.48.41-.52a23,23,0,0,1,14.32,3.11.4.4,0,0,1,.13.64.66.66,0,0,1-.8,0,22.06,22.06,0,0,0-13.34-2.88A.75.75,0,0,1,42.07,438.43Z" style="fill:#263238"></path><path d="M43,433.89a.62.62,0,0,1-.45-.36c-.09-.25.09-.48.39-.52,7.39-1.05,14.13,3.06,14.42,3.24a.41.41,0,0,1,.15.64.67.67,0,0,1-.81.05c-.06,0-6.58-4-13.43-3A.82.82,0,0,1,43,433.89Z" style="fill:#263238"></path><path d="M58.32,256.1c-4,40.84-6.93,96.49-6.93,96.49-.34,3.1-2.63,8.39-4.41,23.68-1.87,16.14-2.6,39.12-2.6,39.12s9.31,6.38,18.52,3.49c0,0,10.59-35.72,15.63-54.69,4.77-17.95,12.33-52,12.33-52L95,346.09s-.84,11.65-.63,19.81c.23,9.49,6.16,51.65,6.16,51.65a30.56,30.56,0,0,0,19.93.7s4-59.66,4.43-71.07c.92-22.38-.92-65.81-1.22-94.73Z" style="fill:#37474f"></path><path d="M90.86,312.2l4.39-22.33s11.13-1.42,16.91-6.43c0,0-3.79,6.69-14.31,9.15l-4.32,19.72L95,346.09Z" style="fill:#263238"></path><path d="M101.42,346.49c1.07-5.62-.43-33.1-1.53-53.17l-.13-2.38.95-.05.13,2.38c1.16,21.24,2.61,47.66,1.52,53.4-2.28,12-2.45,25.81-.51,41.14,1.38,10.9,2.34,24.56,2.84,31-.34-.07-.67-.15-1-.23-.51-6.45-1.46-19.95-2.82-30.67C99,372.5,99.13,358.56,101.42,346.49Z" style="fill:#263238"></path><path d="M49.29,380.05a112.14,112.14,0,0,1,3.28-16.8,101.4,101.4,0,0,0,3.72-23.1c.8-17.14,5-57.94,8.28-84.4l1-.06C64.42,264.63,63.2,275.21,62,286c5.54.14,9.09-1.33,11.55-18,.81-5.53,1.37-9.69,1.75-12.79l1-.06c-.38,3.13-1,7.34-1.78,13-2.32,15.74-5.65,18.86-12.07,18.86l-.52,0c-2.22,20.8-4.18,42.09-4.7,53.27a103.87,103.87,0,0,1-3.74,23.3,112.36,112.36,0,0,0-3.27,16.66c-1,9.52-3,26.81-3.77,36.45-.35-.18-.65-.35-.92-.5C46.37,406.32,48.25,389.44,49.29,380.05Z" style="fill:#263238"></path></g><g id="freepik--top--inject-54"><path d="M120.85,181.8a11.79,11.79,0,0,0,.12-1.18c.27-5.66-3.19-11.07-7.93-14.17-4.25-2.78-8.74-4.83-12.49-8.36l11.13-7c6.8-3.74,6.49-10,4.78-14.62-3.81-10.34-15.06-14.12-22-14.43-13.17-.59-19.57,2.87-20.86,9.7-4.86-.35-9.13,4.85-9.82,19.57a28.07,28.07,0,0,1-1.52,8.43,11.71,11.71,0,0,1-4.4,5.62c-3.79,2.89-8.45,5.1-11,9.35a12.19,12.19,0,0,0-1.44,8.64,11.18,11.18,0,0,0,2.64,5.05A4.35,4.35,0,0,1,49,193a12.63,12.63,0,0,0,2.12,11.49c2.12,2.48,6.2,4.83,9.44,5a27.6,27.6,0,0,0,10.66-1.56,21.44,21.44,0,0,1,7.41-1.2c3,.06,6,1.33,8.82,2.16,3.46,1,6.83,2.43,10.52,2a16.38,16.38,0,0,0,9.22-4.74,11.51,11.51,0,0,0,3-5.31c.23-.77,1.15-9,.18-8.92C115.65,191.71,120,187,120.85,181.8Z" style="fill:#263238"></path><g id="freepik--Arm--inject-54"><path id="freepik--arm--inject-54" d="M120.78,172.5a14.36,14.36,0,0,0-8.89,2.87c-2,1.31-9.76,7-9.76,7l-7.66,5.9s-11.53-13.14-16.1-13.9L76.25,188s9,9.3,12.12,13.15c2.18,2.69,4.59,4.59,8.73,2.13s20-13.31,20-13.31Z" style="fill:#b16668"></path><path d="M120.78,172.17a15.67,15.67,0,0,0-7.9,2.25c-2.06,1.3-12.35,8.75-12.35,8.75s2.68,9.37,9.21,10.86l10-5.5Z" style="fill:#37474f"></path></g><path d="M53.13,309c0-14.37-2.55-39.26,1.85-52.07s8.79-21.18,8.91-25.25c0,0-4.21-23.32-4.74-28.13-1.37-12.53.87-18.41,3.39-19.75a90,90,0,0,1,9.35-3.07c8.67-2.47,21.1-2.78,29.18-2.66,3,.16,4,.27,4,.27a74.24,74.24,0,0,1,10.89,9.92c6.42,7.45,10.68,14.21,9.66,21.87a18.42,18.42,0,0,1-4.25,9c-.5,3.71-1.31,14.22-1.31,14.22.1,4.13.88,9.8,3,19.75,0,0,4.79,41.54,4.79,64.07-.42,5.64-.73,12.89-.73,12.89-.47,11.78-50.53,32.58-76.48,1.41C52.86,323.75,53.13,314.35,53.13,309Z" style="fill:#F83178"></path><path d="M111.47,333.76c0-15.5-2.71-39.95-6.72-47.54s2.92-3.76,6.73-9.94c4.22-6.84,7.27-14.31,7.83-7.94s-2.45,46.3-3.61,56.09S111.47,343.09,111.47,333.76Z" style="opacity:0.05"></path><g id="freepik--head--inject-54"><path d="M75.26,163.19a6.69,6.69,0,0,1-6-2.48c-3.09-3.61-3.28-7.19-1.72-9.52,1.28-1.92,4.33-3.08,6.4-1.7s2.25,2.64,3.06,4.26,4.1,1.58,5.08-4.84c.91-6,2-11.47,5-14.1,4.52-3.93,9.39-3.12,11.07-.68,1.88-2.75,4.64-3.8,7.6-2.1s5.11,6.24,5.81,17.68c.71,11.66-2,19.83-4.69,21.71-2.06,1.42-4.64,1.67-9,1.73l.26,6.81s9.11,13.87-5.71,10.92a20.69,20.69,0,0,1-13.8-10.34l-.83-19.1S77.52,162.84,75.26,163.19Z" style="fill:#ffa8a7"></path><path d="M93.55,159.57l6,2.15a3.15,3.15,0,0,1-4,2.05A3.36,3.36,0,0,1,93.55,159.57Z" style="fill:#b16668"></path><path d="M94.17,160.68a3.46,3.46,0,0,0-.77-.1,3.3,3.3,0,0,0,2.14,3.19,3,3,0,0,0,1,.16A2.92,2.92,0,0,0,94.17,160.68Z" style="fill:#f28f8f"></path><path d="M93.76,150.21a1.92,1.92,0,1,1-1.17-2.51A2,2,0,0,1,93.76,150.21Z" style="fill:#263238"></path><path d="M108.59,145l-4.22-1.81a2.2,2.2,0,0,1,2.94-1.25A2.4,2.4,0,0,1,108.59,145Z" style="fill:#263238"></path><path d="M104,149.89a2,2,0,0,0,2.44,1.29,2,2,0,0,0,1.2-2.51,1.92,1.92,0,1,0-3.64,1.22Z" style="fill:#263238"></path><path d="M92.36,142.79,88,145a2.35,2.35,0,0,1,1-3.28A2.58,2.58,0,0,1,92.36,142.79Z" style="fill:#263238"></path><polygon points="97.76 146.19 98.73 157.65 105 155.44 97.76 146.19" style="fill:#f28f8f"></polygon><path d="M97.89,173.15a40.67,40.67,0,0,1-12.35-2.66c-1.43-.61-3.37-3.22-4.94-6.13,0,0,1.1,5.73,4.2,7.7,4.72,3,13.19,3.72,13.19,3.72Z" style="fill:#f28f8f"></path></g><g id="freepik--Boy--inject-54"><g id="freepik--bottom--inject-54"><path d="M129.3,267.17c.42,1.55,5.47,19.56,5.47,19.56s-4.54,7.42-10.54,5.68c-.31-3.15-7-13.7-11-20.79C115.64,271.45,128,267.69,129.3,267.17Z" style="fill:#b16668"></path><path d="M138,291.69l-18.56,21.2-.24.34a2.31,2.31,0,0,0,2.46,1.5c2.18,0,7.49-2,10.78-5.41s3.74-8.41,4.1-9.62c.63-2.11,2.92-2.88,3.14-5A4.81,4.81,0,0,0,138,291.69Z" style="fill:#263238"></path><path d="M122.22,292a6.71,6.71,0,0,0,.79,1.8,4.36,4.36,0,0,1,.14,2.48,22.67,22.67,0,0,1-2,6,47.4,47.4,0,0,1-2.9,5.16,4,4,0,0,0,1.22,5.52,11,11,0,0,0,6.48-1.33c3.76-1.83,5.87-3.49,7.7-7.09,1.27-2.5,1.08-4.2,2.37-6.7.52-1,2.77-2.93,3-4.87a9,9,0,0,0-1.87-3.74,9.93,9.93,0,0,1-1.3-2.39c-.45-1.34-.37-2-.82-2.6a.83.83,0,0,0-1-.33l.29,1c.28,1.45-2.44,3.68-3.77,4.32-.52-.9-.58-1.35-1.25-1.57a4.2,4.2,0,0,0-2.65.57,16.47,16.47,0,0,0-3.27,2,2.42,2.42,0,0,0-1.06,1.27A1.21,1.21,0,0,0,122.22,292Z" style="fill:#F83178"></path><path d="M122.22,292a6.71,6.71,0,0,0,.79,1.8,4.36,4.36,0,0,1,.14,2.48,22.67,22.67,0,0,1-2,6,47.4,47.4,0,0,1-2.9,5.16,4,4,0,0,0,1.22,5.52,11,11,0,0,0,6.48-1.33c3.76-1.83,5.87-3.49,7.7-7.09,1.27-2.5,1.08-4.2,2.37-6.7.52-1,2.77-2.93,3-4.87a9,9,0,0,0-1.87-3.74,9.93,9.93,0,0,1-1.3-2.39c-.45-1.34-.37-2-.82-2.6a.83.83,0,0,0-1-.33l.29,1c.28,1.45-2.44,3.68-3.77,4.32-.52-.9-.58-1.35-1.25-1.57a4.2,4.2,0,0,0-2.65.57,16.47,16.47,0,0,0-3.27,2,2.42,2.42,0,0,0-1.06,1.27A1.21,1.21,0,0,0,122.22,292Z" style="opacity:0.25"></path><path d="M121.24,301.35a3.24,3.24,0,0,1,.63-.65,5.15,5.15,0,0,1,1.65-.92,8.21,8.21,0,0,1,3.9-.39c.27,0,.31.64,0,.61a8.23,8.23,0,0,0-3.54.52,11.79,11.79,0,0,0-1.42.59,3.31,3.31,0,0,0-1.29,1A.88.88,0,0,1,121.24,301.35Z" style="fill:#fafafa"></path><path d="M122.41,298.61A2.41,2.41,0,0,1,123,298a3.77,3.77,0,0,1,.81-.56c.3-.13.61-.23.92-.33a12.93,12.93,0,0,1,1.74-.41c.51-.09,1.58-.2,1.46.26l0,.08c-.2.37-.8.33-1.16.38a14.09,14.09,0,0,0-1.71.38,10,10,0,0,0-1.58.58,4.1,4.1,0,0,0-.71.46,1,1,0,0,0-.35.47C122.21,299.2,122.29,298.79,122.41,298.61Z" style="fill:#fafafa"></path><path d="M122.87,296.52a2,2,0,0,1,.92-1.46,4.74,4.74,0,0,1,1.39-.83,9.17,9.17,0,0,1,1.83-.52c.21,0,.43-.08.65-.1l.16,0h.23a1.26,1.26,0,0,1,.27,0,.35.35,0,0,1,.24.1.29.29,0,0,1,0,.32.31.31,0,0,1-.09.11s0,0,0,0l0,0-.12.07a1.52,1.52,0,0,1-.28.09l-.1,0a5.42,5.42,0,0,1-.58.06l-.1,0h-.13a5.77,5.77,0,0,0-.58.08l-.29.07-.14.05,0,0-.06,0-.09,0-.15,0-.29.11a7.2,7.2,0,0,0-1.18.59,4.94,4.94,0,0,0-.59.43,2.4,2.4,0,0,0-.66.77C123,296.76,122.86,296.6,122.87,296.52Z" style="fill:#fafafa"></path><path d="M119.22,313.23c-2.47-1.63-2.94-4-.84-6.86s7.28-4.35,9.68-4.09,4.4,1.19,4.8,3.58c0,0-1.87,3.87-7.34,6.42A9.76,9.76,0,0,1,119.22,313.23Z" style="fill:#fafafa"></path><path d="M124.28,248.85a147.8,147.8,0,0,1,5.15,16c1.54,6.68,3.5,13.54,3.5,13.54s-4.16,5.38-13.26,6.16c0,0-6.91-11.88-11.72-19.87-5.45-9-9.13-13.68-7.5-21.18,2.5-12.84,8.55-28,9.35-34.32L148.36,211Z" style="fill:#455a64"></path><path d="M132.12,284.53c-.16,1.6-2,20.21-2,20.21s-6.91,5.28-11.87,1.48c.85-3.05-1.57-15.3-2.77-23.38C117.84,283.58,130.72,284.54,132.12,284.53Z" style="fill:#f28f8f"></path><path d="M131.59,309.78l-25.19,13.8-.35.24c0,.77.22,1.65,1.75,2.28,2,.84,7.7.87,12-1.13s6.52-6.49,7.3-7.48c1.36-1.75,4-2.36,5-4.52A8.89,8.89,0,0,0,131.59,309.78Z" style="fill:#263238"></path><path d="M116.55,305.07a6.79,6.79,0,0,0,.08,2,4.35,4.35,0,0,1-.76,2.36,22.85,22.85,0,0,1-4,4.84,46.38,46.38,0,0,1-4.57,3.77,4,4,0,0,0-.86,5.58,10.93,10.93,0,0,0,6.51,1.12c4.17-.35,6.74-1.14,9.75-3.83,2.09-1.87,2.53-3.52,4.64-5.39.84-.74,3.86-2.49,4.73-4.23a6,6,0,0,0-.35-3.65,7.54,7.54,0,0,1-.6-2.44c.06-1.43.36-2,.17-2.73a.85.85,0,0,0-.82-.68l-.11,1.08c-.26,1.45-3.61,2.55-5.08,2.66-.15-1,0-1.46-.59-1.91a4.29,4.29,0,0,0-2.68-.44,16.81,16.81,0,0,0-3.78.71,2.44,2.44,0,0,0-1.45.8A1.33,1.33,0,0,0,116.55,305.07Z" style="fill:#F83178"></path><path d="M116.55,305.07a6.79,6.79,0,0,0,.08,2,4.35,4.35,0,0,1-.76,2.36,22.85,22.85,0,0,1-4,4.84,46.38,46.38,0,0,1-4.57,3.77,4,4,0,0,0-.86,5.58,10.93,10.93,0,0,0,6.51,1.12c4.17-.35,6.74-1.14,9.75-3.83,2.09-1.87,2.53-3.52,4.64-5.39.84-.74,3.86-2.49,4.73-4.23a6,6,0,0,0-.35-3.65,7.54,7.54,0,0,1-.6-2.44c.06-1.43.36-2,.17-2.73a.85.85,0,0,0-.82-.68l-.11,1.08c-.26,1.45-3.61,2.55-5.08,2.66-.15-1,0-1.46-.59-1.91a4.29,4.29,0,0,0-2.68-.44,16.81,16.81,0,0,0-3.78.71,2.44,2.44,0,0,0-1.45.8A1.33,1.33,0,0,0,116.55,305.07Z" style="opacity:0.15"></path><path d="M112.24,313.47a3,3,0,0,1,.81-.37,5.22,5.22,0,0,1,1.88-.26,8.17,8.17,0,0,1,3.77,1c.24.13.06.72-.21.57a8.4,8.4,0,0,0-3.49-.79,13.15,13.15,0,0,0-1.54,0,3.45,3.45,0,0,0-1.57.49A.92.92,0,0,1,112.24,313.47Z" style="fill:#fafafa"></path><path d="M114.32,311.34a2.81,2.81,0,0,1,.75-.39,3.86,3.86,0,0,1,1-.22,6.42,6.42,0,0,1,1,0,11.76,11.76,0,0,1,1.77.24c.51.1,1.54.39,1.26.78l-.06.06c-.32.27-.87,0-1.22-.07a12.46,12.46,0,0,0-1.73-.27,10.48,10.48,0,0,0-1.68,0,3.82,3.82,0,0,0-.83.17,1.08,1.08,0,0,0-.5.32C113.91,311.82,114.14,311.46,114.32,311.34Z" style="fill:#fafafa"></path><path d="M115.5,309.56a2.05,2.05,0,0,1,1.39-1,4.7,4.7,0,0,1,1.59-.27,9.72,9.72,0,0,1,1.9.18c.21,0,.43.08.64.14l.15,0,.08,0,.08,0,.06,0a1.12,1.12,0,0,1,.24.13.42.42,0,0,1,.19.18.29.29,0,0,1-.09.31.29.29,0,0,1-.12.07h-.08l-.15,0a1.43,1.43,0,0,1-.29,0l-.09,0c-.19,0-.38-.1-.57-.15l-.1,0a.28.28,0,0,1-.12,0c-.19-.05-.38-.1-.57-.13l-.3,0h-.82a7.07,7.07,0,0,0-1.31.11,5.75,5.75,0,0,0-.71.2,2.35,2.35,0,0,0-.9.47C115.52,309.83,115.46,309.63,115.5,309.56Z" style="fill:#fafafa"></path><path d="M106.05,323.82c-1.71-2.42-1.29-4.82,1.7-6.7s8.36-1.42,10.51-.31,3.67,2.71,3.17,5.08c0,0-3.15,2.93-9.16,3.32A9.77,9.77,0,0,1,106.05,323.82Z" style="fill:#fafafa"></path><path d="M149,209.14c.09,4.05,1.79,9.63.86,18.12s-9.08,22.5-11.63,26.87-5.73,10.2-5.73,10.2,1.59,11.27.61,18.06-1.64,13.89-1.64,13.89-5.82,3.52-14.59.94c0,0-2.14-13.57-3.73-22.76-1.81-10.4-3.06-13.75-.47-24.18,2.79-11.25,6.54-17.2,6.54-17.2s-7.75-12.34-7.38-24.53Z" style="fill:#455a64"></path><path d="M132.63,255.41c1.47-2.8,3.31-6.29,5.64-11,7.28-14.61,7.67-22,5.78-32.92l.79-.14c1.91,11.14,1.52,18.61-5.86,33.42-2.33,4.68-4.17,8.18-5.64,11-2.89,5.5-4.09,7.78-4.07,9.55,1,6.18,1.09,9.55.12,20.79-.33,3.8-.7,7.55-1.09,11.3-.26.09-.48.12-.76.19.4-3.84.72-7.64,1.06-11.56,1-11.17.85-14.48-.12-20.65C128.45,263.37,129.67,261,132.63,255.41Z" style="fill:#37474f"></path><path d="M144.89,227.3l.14-.78c-5-.89-7.38-5.78-6.85-14.15l-.8-.05C136.68,223.48,141.08,226.62,144.89,227.3Z" style="fill:#37474f"></path><path d="M119.2,233.08c4.2-6.07,10.77-5.74,15.09-5.5-10.89-3.76-16.88,3.4-16.88,3.4a19.55,19.55,0,0,1-6.58-8.18c-.24,5.84,5.44,10,5.44,10s-4.4,16.83-5,23.37A163,163,0,0,1,119.2,233.08Z" style="fill:#37474f"></path></g><g id="freepik--top--inject-54"><path d="M151.54,206c.74-7.88,1.59-16.25,1.93-18.22.69-4,.22-10.5-5-12.38s-8.11-2.7-8.11-2.7-9.43-.77-11.7-.77c-3.94,0-7.85.25-7.85.25-2.33,1.53-8.5,5.78-10,20.23a196.34,196.34,0,0,1-3.14,19.47,3.12,3.12,0,0,0,.88,2.55c6.79,7.89,32.69,11.64,41.5,5.81a3.8,3.8,0,0,0,1.55-3.38A59.88,59.88,0,0,1,151.54,206Z" style="fill:#F83178"></path><path d="M151.54,206c.74-7.88,1.59-16.25,1.93-18.22.69-4,.22-10.5-5-12.38s-8.11-2.7-8.11-2.7-9.43-.77-11.7-.77c-3.94,0-7.85.25-7.85.25-2.33,1.53-8.5,5.78-10,20.23a196.34,196.34,0,0,1-3.14,19.47,3.12,3.12,0,0,0,.88,2.55c6.79,7.89,32.69,11.64,41.5,5.81a3.8,3.8,0,0,0,1.55-3.38A59.88,59.88,0,0,1,151.54,206Z" style="fill:#fff;opacity:0.30000000000000004"></path><path d="M142.19,167.43c4.17-3.31,8.19-4.29,11.65-10.68s1.25-12.49-2.23-14.15c0,0,.34-6-6.28-10.12-5.23-3.21-13.13-4.54-18.8-2.31-3.08,1.21-5.53,2.32-7.4,5a16,16,0,0,0-2.81,10.28,10.67,10.67,0,0,0,3.52,6.34C121.65,153.43,142.19,167.43,142.19,167.43Z" style="fill:#263238"></path><path d="M143.91,156.52a1.54,1.54,0,0,0,.17.19c.94.81,1.17-1,2.35-2.05a2.74,2.74,0,0,1,2.33-.57,3.46,3.46,0,0,1,2.94,2.43,5.08,5.08,0,0,1-3.92,6.13,4.1,4.1,0,0,1-4.27-1.49l-1.59,12.37A21.28,21.28,0,0,1,132,177c-7.4.79-8.59-2.81-5.66-4.86l.41-3.17a17.15,17.15,0,0,1-5.18-1.5c-4.58-2.44-5.29-6.54-5.6-8.68-.4-2.79.55-5.61,1.93-9,.6-1.46,0-2.85.22-3.86a8.74,8.74,0,0,1,.77-2.37,17.43,17.43,0,0,0,13.33-2.73,11.36,11.36,0,0,1-7.34,4.78c6.34,3.18,13.22.45,15.82-3.38a10.22,10.22,0,0,0,0,5.65A10.59,10.59,0,0,0,144,152.7a6.21,6.21,0,0,0-.35,2.93A2.08,2.08,0,0,0,143.91,156.52Z" style="fill:#f28f8f"></path><path d="M132.7,148.72l3.56,2.34a2.22,2.22,0,0,0-.64-3A2.08,2.08,0,0,0,132.7,148.72Z" style="fill:#263238"></path><path d="M129.9,158.84a13.28,13.28,0,0,1-3.51.22,1,1,0,0,0-.86,1.58,3.25,3.25,0,0,0,2.86,1.11,2.84,2.84,0,0,0,2.62-1.62A1,1,0,0,0,129.9,158.84Z" style="fill:#b16668"></path><path d="M127.26,161.45l0-.07a2.94,2.94,0,0,1,3.58-1.51.83.83,0,0,1-.06.21,2.61,2.61,0,0,1-2.4,1.48A3.78,3.78,0,0,1,127.26,161.45Z" style="fill:#ffa8a7"></path><path d="M119.37,146.9l4.26-.53a2.05,2.05,0,0,0-2.31-1.89A2.26,2.26,0,0,0,119.37,146.9Z" style="fill:#263238"></path><polygon points="128.21 149.49 126.31 156.93 122.36 154.9 128.21 149.49" style="fill:#b16668"></polygon><path d="M131.47,152.64a1.58,1.58,0,1,0,1.58-1.58A1.58,1.58,0,0,0,131.47,152.64Z" style="fill:#263238"></path><path d="M119.9,150.16a1.58,1.58,0,1,0,1.58-1.58A1.58,1.58,0,0,0,119.9,150.16Z" style="fill:#263238"></path><path d="M126.79,169a19.66,19.66,0,0,0,10.28-1.6,10.69,10.69,0,0,0,4.28-4.16,12.56,12.56,0,0,1-2.87,4.53c-4.6,3.8-11.94,3.15-11.94,3.15Z" style="fill:#b16668"></path></g></g><g id="freepik--man-arms--inject-54"><path d="M145,241.56c-.92,1.77-5.65-.35-9.37.27a37.83,37.83,0,0,1-9.4.06c-2.23-.17-2.2,1.64-.07,3.22s6.91,1.54,7.48,2,2.13,2.26-1.5,3.32-8.24,2-9.76,4.05,8.62,7.07,12.27,4.65,3.71-1.88,5.72-3.6c6.3-5.41,6.29-11.31,5.62-15.9Z" style="fill:#f28f8f"></path><path d="M83,235.89c5.29,3.18,16,7.62,23.42,11.16,3.57,1.51,6.51,3.34,10.34,4.1,2.53.44,6-1,8.28-1.82,4.8-1.44,9-1.26,13.86-2.71,2-.61,1.61,2.53-.31,4.2s-7.45,2-7.66,4.68a.82.82,0,0,0,.61.39c9.75,1.06,11-2.71,12.19-4a5.24,5.24,0,0,1,2.09,4.18c-.36,1.16-1.38,1.52-1.86,2.64s.1,1.66-.78,2.48c-.42.26-.82.55-1.23.82a3.57,3.57,0,0,0-1.56,2.59c-.66,2.05-2.13,2.94-4.09,3.6a47.73,47.73,0,0,1-10.58,1.74c-6.21-.06-10.2-2.71-15.31-4.39-3.52-1.16-30.84-8.82-37.59-11.41-8.29-3.19-8.73-6.38-10.9-12.79-3.44-10.19-5.69-16.82-7.67-23.71-3-10.52-7.7-23.4,1.29-30a33.51,33.51,0,0,1,7.19-3.52s8.06,4.26,11.67,18.17C74.39,202.23,82.67,234.35,83,235.89Z" style="fill:#ffa8a7"></path><path d="M62.83,183.66a25.49,25.49,0,0,0-9.3,5.09c-1.15,1.14-5,6.19-3.23,15.48S57.45,230,57.45,230s2.78,1.58,11.8-.35,11.33-5.46,11.33-5.46S76.15,206.14,75,201.33,69.31,186.61,62.83,183.66Z" style="fill:#37474f"></path></g><g id="freepik--boy-arms--inject-54"><path d="M78.61,179.68l-.24-5.3c-1.48.24-3.46.71-6.74,4.55-2.87,3.36-2.76,5.11-2.93,8-.15,2.58-.65,4.39.28,4.4S70.54,190,70.61,189a15.32,15.32,0,0,1,.72-3s.21,3.22,1.18,4.22a16.52,16.52,0,0,0,4.16,3.08c1.3.56,1.76.52,2.11-.29.71.48,1.39,1.71,2.06,2a1.41,1.41,0,0,0,1.76-1,1.61,1.61,0,0,0,1.22-1.65c.05-1.45-1.39-3.18-2.11-4.34S78.61,179.68,78.61,179.68Z" style="fill:#b16668"></path><path d="M71,188.8a1.29,1.29,0,0,1,1-.47,6.86,6.86,0,0,1,1.11,0,12,12,0,0,1,1.34.19l1.52.38a11,11,0,0,0,1.89.31c.24,0,.57,0,.59-.29a.38.38,0,0,0-.23-.35,6,6,0,0,0-1-.42l-4.56-1.51c-.48-.16-1-.37-1.18-.84a1.33,1.33,0,0,1,.5-1.37.78.78,0,0,0,.25-.29.87.87,0,0,0,.05-.28A2.11,2.11,0,0,1,73.91,182,.22.22,0,0,0,74,182a.2.2,0,0,0,0-.11,1.27,1.27,0,0,1,.29-.67,1.35,1.35,0,0,1,.8-.47.66.66,0,0,0,.2-.06,2.52,2.52,0,0,1,.62-.12,19.32,19.32,0,0,1,2.74-.2,9.1,9.1,0,0,1,2.36.25,2.11,2.11,0,0,1-.85-1.44c0-.82.78-.45,1.49-.5s2.4-.07,3-.15,1.17.38,2.48,1.06a19.19,19.19,0,0,1,3.46,2.08c.36.41,1.18,1.66,2.34,3.4.86,1.28,1.61,1.62,4.48,2.3,5.09,1.2,19.56,3.35,19.56,3.35l17.23-7.45s8.25-7.06,15.13-6.28c7.63,4.87,5.23,15.93-4.43,19.49-7,2.57-12.17,4.8-17.92,6.56-7.87,2.4-8.77,2.92-13,1.63-7.76-1.8-21.29-7.46-22.55-7.79a7.37,7.37,0,0,0-1.15-.14l-.71-.06a1.87,1.87,0,0,1-.34,0,.69.69,0,0,0-.25,0q-.3,0-.6,0c-.4,0-.79-.06-1.19-.12a15.54,15.54,0,0,1-2.35-.48,17.92,17.92,0,0,1-2.27-.79l-.51-.24c-.73-.4-1.47-.79-2.22-1.16s-1.5-.74-2.26-1.08-1.53-.68-2.3-1-1.55-.61-2.33-.89c-.29-.11-.58-.22-.87-.35a4.5,4.5,0,0,1-.43-.23,2.61,2.61,0,0,1-.43-.31,1.7,1.7,0,0,1-.34-.37.37.37,0,0,1,0-.17A1.06,1.06,0,0,1,71,188.8Z" style="fill:#f28f8f"></path><path d="M79.22,183.15c-.76-.23-1.55-.38-2.33-.57a13.45,13.45,0,0,0-3-.54h0A.22.22,0,0,0,74,182a.2.2,0,0,0,0-.11,1.11,1.11,0,0,1,.07-.26,10,10,0,0,1,2.65.42,20.05,20.05,0,0,1,2.16.68,15.55,15.55,0,0,1,2.38,1s.08.14,0,.12C80.61,183.64,79.93,183.37,79.22,183.15Z" style="fill:#b16668"></path><path d="M75.93,184.76a10,10,0,0,0-3.76-.48s.06-.07.07-.12a.54.54,0,0,0,0-.22,7,7,0,0,1,3.54.28,19.88,19.88,0,0,1,2.15.68,15.66,15.66,0,0,1,2.39,1s.08.13,0,.11c-.72-.18-1.4-.46-2.11-.67S76.71,185,75.93,184.76Z" style="fill:#b16668"></path><path d="M84.72,178.51a2.16,2.16,0,0,1,1.12.34l1,.59c.69.38,1.38.76,2.06,1.16.34.2.68.41,1,.62a2.72,2.72,0,0,1,.85.76c.45.64.88,1.31,1.32,2a14.2,14.2,0,0,0,1.39,2A4.84,4.84,0,0,0,95.63,187c1.53.45,3.08.77,4.63,1.08,3.11.58,4.26.74,7.39,1.23s6.25.94,9.39,1.35l-9.34-1.63c-3.12-.55-4.27-.71-7.37-1.32-1.55-.29-3.1-.6-4.61-1a4.57,4.57,0,0,1-2-1.05,16,16,0,0,1-1.38-1.88c-.45-.65-.89-1.31-1.37-1.95a2.2,2.2,0,0,0-.42-.45l-.49-.34c-.34-.21-.68-.41-1-.6-.7-.38-1.41-.74-2.11-1.09l-1-.55A2.1,2.1,0,0,0,84.72,178.51Z" style="fill:#b16668"></path><path d="M81.07,180.6s2,.47,2.46.63a11.66,11.66,0,0,0,2.79,1.06,1.25,1.25,0,0,0,1.24-.5,2.26,2.26,0,0,1-1.81-.07c-1.25-.43-1.47-1.28-1.32-1.79-.37.2-.39,1.1-.39,1.1S81.8,180.34,81.07,180.6Z" style="fill:#b16668"></path><path d="M149.2,175.71c4.25,1.76,6,6.13,4.91,11.82s-5.82,7.94-8.72,9.35-13.29,4.81-13.29,4.81a20.88,20.88,0,0,0-1.77-9.35c-2.15-4.6-4.31-5.52-4.31-5.52s3.64-1.88,7.68-4.1S143.76,173.78,149.2,175.71Z" style="fill:#37474f"></path></g></g></g></g><g id="freepik--speech-bubble--inject-54"><g id="freepik--speech-bubble--inject-54"><g id="freepik--speech-bubble--inject-54"><path d="M274.76,167.46a24.65,24.65,0,0,1-6.85,16.84l-2.07,1.94A24.75,24.75,0,0,1,231.28,151l2-2a24.74,24.74,0,0,1,41.5,18.45Z" style="fill:#fff"></path><path d="M250.2,140.37a26.86,26.86,0,0,0-4.86,53.31l2.95,7.8a1.56,1.56,0,0,0,2.91,0l3.08-7.76a26.86,26.86,0,0,0-4.08-53.38Zm24.57,27A24.71,24.71,0,0,1,268,184.27l-2.07,1.94a24.74,24.74,0,0,1-34.62-35.13l2-2a24.75,24.75,0,0,1,41.54,18.38Z" style="fill:#455a64"></path></g><path id="freepik--Heart--inject-54" d="M249.82,179.53c-15-8.22-16.14-16.87-11.7-21.05,4-3.74,11.15-1.16,11.89,4.25.86-5.39,8.09-7.81,12-4C266.34,163,265,171.65,249.82,179.53Z" style="fill:#F83178"></path></g></g></svg>